<svg version="1.1" xmlns="http://www.w3.org/2000/svg" viewBox="0 0 1029.1999816894531 413.0729515285324">
  <!-- svg-source:excalidraw -->
  <defs>
    <style>
      @font-face {
        font-family: "Virgil";
        src: url("https://excalidraw.com/FG_Virgil.woff2");
      }
      @font-face {
        font-family: "Cascadia";
        src: url("https://excalidraw.com/Cascadia.woff2");
      }
    </style>
  </defs>
  <g transform="translate(931.9999694824219 10) rotate(0 0.5 0.5)"><path d="M0.03482396109029651 -0.012574210297316313 C0.37195115238428117 -0.03644761162810028, 0.5841343243606388 -0.0393200935702771, 1.0432456652633846 -0.08849207116290927 M-0.015015885001048446 -0.03178488560952246 C0.3110196379479021 -0.04423094291239977, 0.6036172889638693 -0.03410327184945345, 0.9779613780323416 -0.026321000838652256 M0.9026596943847836 0.08610764788463712 C0.8961318873707205 0.14327596817165614, 1.0295119815412908 0.3517387106083334, 0.9020828138105571 1.0395054494030773 M0.9938657450024039 -0.006622988963499665 C0.9933067747764289 0.31583803151734174, 0.9931560867838561 0.5095260779839009, 1.0011697235051542 0.9637233173009008 M1.0668259750120341 0.9566398059017956 C0.6835718220099807 0.9665824710484594, 0.5227796555496752 1.0445584922190756, 0.056295309495180856 1.0308846418745816 M0.9886954131070524 1.0162860905285924 C0.7133279777597635 0.9748092085309327, 0.3724700581748038 1.0432018980570137, 0.02108202748931945 0.950548936938867 M0.06379436058923602 1.0175800030119717 C0.0013196316640824018 0.5954735308885574, 0.0298613545577973 0.13750938130542628, -0.024539821315556765 0.03828527675941587 M-0.018367151683196428 0.9992211004253477 C0.009450871534645558 0.656908797705546, -0.02483611177653075 0.2213429301511496, -0.009663465386256578 0.03486234000883996" style="stroke: rgb(24, 100, 171); stroke-width: 1; fill: none;"></path></g><g transform="translate(10 86.60000610351562) rotate(0 190.8000030517578 38)"><path d="M0 0 C0 0, 0 0, 0 0 M0 0 C0 0, 0 0, 0 0 M-0.1438905626209328 6.238790012200467 C1.6270831173185312 3.8735186696945574, 2.0845286416269886 2.7997110175891535, 4.393148091765589 0.9908920559880549 M-0.5800119276763747 6.224377420966618 C1.659802278821852 3.942814486493405, 4.098874779721618 1.9944530195070147, 4.88271495770151 0.07307764886293944 M1.4538591587077487 10.615628575205385 C2.661563689814318 8.153605019073488, 5.507643395785714 5.613765337375208, 10.427223882031573 -0.577379556457722 M0.24227156947363482 12.471108655303299 C3.2552429943594996 9.12342849536233, 4.680390228013829 5.388376556452184, 11.227346769672764 -0.24547022850366818 M0.67454979470463 17.35345706800061 C5.71725907576289 12.0274162206074, 10.2222023552099 7.0380832154315325, 17.244154305666168 -0.3895458516734669 M0.7753138988697668 19.337529223319763 C3.4898019533112543 14.551384614123453, 6.779082301341271 10.369721158686875, 16.435859034306784 0.3894103594985774 M1.5791627785376523 25.726839977963923 C5.3337049278421 16.82439547226801, 11.277974772193568 13.35094970624476, 19.74022085992422 -2.001648802852678 M-0.28584774283699055 23.80396270257896 C7.673163425997753 15.12020994500272, 13.199529958700802 8.665309942795236, 21.76306506367203 0.7109103076323393 M1.6179484380920783 29.129550616953722 C9.898029223633738 21.367135492694327, 18.23645298526099 7.2413536277618284, 24.307044562559934 -0.715344435161656 M0.8913512565707222 29.55700139957314 C9.18653582412755 20.645783631830376, 18.95621890038287 8.996979804774586, 25.986804341573627 0.9689483348292054 M-1.1892036312353333 36.272150400840985 C9.652558425166694 26.8597292108174, 14.451624741616602 18.50098048450458, 31.505339662960566 -1.0532965379521961 M0.7239257366302887 36.93986664228265 C9.369358016561955 25.54975125448229, 17.498530676267762 16.92824551580309, 32.22214292403946 -0.2430809986532445 M0.1717367909521812 44.02731012049668 C7.208077601125167 30.774844377893743, 17.163810261667965 20.367012836357173, 38.82822491955136 2.0802787953149995 M0.7411952243790978 42.35535007118784 C14.810289417570285 26.66381197809724, 28.39740059546181 10.636942363020466, 36.290965438635396 0.027875500833662414 M-0.1967365369201488 48.631438682460114 C13.59231391841053 31.656140562469716, 25.86507619786254 17.268065455553714, 44.012195831719566 0.2994365252881295 M-0.9146431526169962 48.561192379937395 C9.326437953621824 38.94136789962835, 19.996962394348245 26.815506004756653, 42.43919731638931 0.0881030185474998 M1.5512468845349403 55.33921604737948 C9.26860238180308 43.01207155672438, 20.984593696025374 29.702887984933444, 47.85115240789044 -1.2883206914935066 M-0.42735146333010476 54.418366253788875 C17.3717633583361 35.16219470340452, 33.06635567324976 15.22390266524122, 47.557082559867084 -0.33395462686305777 M1.8189620637426884 61.39876987179409 C12.090901309535539 47.60091454468691, 26.137076281050557 33.37606120451542, 53.50737139745122 0.8177808556182988 M-0.08637320519436287 60.96000301139097 C17.797880628877774 40.91254930661253, 35.44061758617213 20.23567843689176, 52.896405975096584 -1.0941216251404278 M0.2220017210998506 65.7062084465749 C13.573265439670925 53.63893266712476, 26.55776655592582 39.230494277280705, 57.325534058827174 -0.5130374268371618 M-1.2256701011723905 67.13967554322402 C22.891328437302207 40.38840349104203, 45.56975050896459 13.677015117930388, 58.29077093964369 0.4364364673640573 M1.682599202003182 72.0072494375929 C20.07340435175855 53.44460734662027, 36.95463449758452 28.510685856093268, 64.14369839140554 -2.143283078211688 M-0.7231491867268076 72.12677705226837 C19.138785042659805 51.02846313058411, 39.07024753488997 27.975834541144607, 63.87282163453628 0.3647860859079728 M2.4921284768494445 75.83471988571907 C17.703422500310218 58.77520365345601, 29.12396511033789 43.30319130452341, 70.10732690361156 0.3079840580340161 M1.468087190179773 76.33777105400438 C18.230011185817684 59.331001095942995, 32.27660617254368 42.280257818204596, 68.29452081234022 0.3451522991399898 M7.6857221990164035 75.93663704637885 C29.986901956000775 50.14124657543421, 54.80305211919604 20.5513910234338, 73.9802588448325 1.3649751925481723 M7.100609427065741 77.95802221596688 C27.72850184936268 51.77130989495104, 49.51313655160059 27.541506334081234, 74.4443720290834 0.572492167317705 M11.200240443948289 76.00609461155706 C34.87083823713129 49.89240211979644, 58.03214080958111 24.023733234298277, 79.95873797349361 0.6703492318700484 M12.196879406015952 76.76543257975005 C30.521118928916437 55.40131152760714, 49.0251210530869 36.1232092684529, 79.66769741233168 -0.1485786159102389 M17.84130197007033 78.826376487793 C42.98778107128649 46.20358903742481, 71.87305717445653 15.339348793276073, 84.98238478898213 -0.1149638633521306 M18.42253175459626 77.36930533900258 C36.45467297757695 57.54308896845524, 55.33450245098916 36.593014513544254, 85.48385989311294 0.5897876347137583 M22.657902276769786 75.69903763573488 C44.24951248242165 51.10384125401909, 69.79314354797107 22.21508844161626, 89.5482242997233 1.6634135634209173 M22.86724190383455 76.73217567898205 C43.94406821591035 51.51208380961239, 67.24133701193043 24.3613890703065, 89.80654097399304 0.8675972378383534 M29.756441372471908 77.41908071192199 C46.84917450879462 56.76246477576151, 65.92659448477336 34.386179692186886, 97.02165825510443 -1.4468697771625898 M28.265003856296698 78.23873741833711 C48.75337143190559 54.675194186991234, 68.8292409884089 31.030494858374645, 96.66096296099991 -0.5694114962788603 M35.611696006563946 75.17477942700256 C54.13406676718755 53.90914049786055, 73.26283805770456 31.82102863284205, 100.45049291355068 -0.02971747856336293 M34.71135241801058 76.68941636732538 C55.872529009037436 51.05696583275537, 77.04335467685917 24.682635122924957, 100.40416673169935 -0.24084162398921904 M39.88084743747115 75.52285518751584 C55.212841747279015 58.410101203701586, 73.32035120577353 37.273338171167374, 105.87591127444935 1.0992379198668019 M37.88364096654206 78.36929696959548 C60.52930221835747 54.170900033304065, 80.83386761665776 28.123816588213558, 105.44223396711928 -0.9380642100351437 M44.05839463559025 78.04301003433284 C61.803338766618396 57.79083565968888, 79.44518344240655 33.27898473127565, 111.14650084622569 1.8678115746671935 M44.10220465392851 76.79640524062779 C68.56276266278637 49.02167156311434, 95.24416061973824 20.552808320704315, 110.45056491982557 0.3447083142320295 M49.57047719631804 78.53955538332453 C68.2643174074 55.411584320442486, 84.89213279854238 33.5827418206204, 116.57316684927645 0.6017992767088103 M49.83093331970734 77.01708750840267 C64.87942433565267 57.97967590595793, 82.77620696728786 38.25406234170731, 115.43504161685559 0.15870508929267402 M53.86919825307973 78.24304076603019 C77.7230852219224 51.710188202028164, 98.33773922554552 27.479343013565, 123.02345512899836 1.2266061918626008 M54.17784440394439 76.90138915406877 C70.53906898330604 57.686374749794005, 86.22575847534978 40.618913810679686, 121.23260077274671 0.8959755681271133 M59.08753768026258 75.46478676809805 C86.8571505869554 47.786225177878265, 112.97159528111351 14.950976248597215, 128.01587506881668 -1.5311243983321177 M60.95624615016754 77.89133755038368 C86.00188044637335 46.76868199900265, 111.41820820791837 16.71838016315902, 126.0118067025648 0.08476825688403977 M64.85337986129184 78.5720616710674 C88.41447261549433 49.191182020180605, 112.00367632018504 25.517529014536514, 134.37481279311868 1.511021841772859 M65.90501537344267 78.06986870349608 C88.74057887452167 50.01822275208684, 112.16751320760955 22.68495916466273, 133.33401452483776 -0.8621863466789677 M69.60048592055479 76.88790481058642 C89.52658753453109 54.809474467316605, 109.97662407466163 34.1637886523487, 139.0445589353296 -1.033593056283209 M71.40581969229767 78.15440061116352 C89.09166727343606 56.99423983497107, 105.88656246080892 36.92384578622803, 137.37364792963146 0.42125088858672655 M75.38252149147662 77.66630321819444 C94.96090419366007 56.27197025667484, 116.6457949024398 30.135976168920863, 142.40028086983668 1.7791639931479466 M75.70339529679838 78.56575990453472 C102.44011248692343 47.76381771316396, 126.24527816664695 19.864811297977546, 143.63542141047375 -0.7517989145612347 M81.18402894844465 76.99201497953965 C95.92963651266919 57.65187183751232, 114.09357736281385 38.39148124794711, 149.06205048006515 0.1993737716055648 M81.62276918047272 77.42175520636721 C104.37664050295507 51.42317102962364, 126.30634138531437 25.079304071386147, 148.17461803243052 0.9476940000257628 M87.73445517488408 76.75574587616133 C112.52071758764035 46.839715763566474, 141.06275103010893 15.071349880111605, 153.20581639040233 -1.317111885262122 M85.78953690838652 77.60610377280967 C101.84259882655547 60.95831679301186, 116.26507805541543 43.878258009375806, 154.31431166402967 0.8582413801053264 M90.81912379518216 75.5539727437077 C118.15296007179302 48.83878341057255, 144.19559112498246 20.118922072885624, 159.3774317342734 0.8665065540841681 M91.34708484906768 76.76200485161971 C116.76589949935995 49.902918426130455, 139.48166637809504 22.070349511600938, 157.86564474533702 -0.6032363931738871 M98.09326294276416 77.66412011371806 C110.73316195850126 63.26790998894917, 126.23836180020629 43.6534444933273, 163.80362638606562 0.4677996752926532 M97.17686794258206 78.36106632394596 C113.24405408897006 57.6321285391293, 130.09431125945304 39.43717832285002, 163.8450505198805 0.05216305294571555 M102.39297749201734 75.9443835718406 C118.78844990396126 55.336974308062835, 137.84274770300962 35.32623066700124, 171.20603472920425 -1.7397142400973848 M102.61563193245757 77.69687806254603 C126.15019904264882 49.01395098450604, 150.8059433631048 22.433316220775417, 169.69453080272592 0.45425072461279115 M106.54927682636692 76.80890639961464 C128.03579004679844 52.29394787952796, 150.53493337484258 28.533110701177414, 176.11216788807656 0.9732541435622863 M106.67569113376005 76.95393857356859 C124.03214627749146 59.64376752590729, 140.33082648052215 41.58699256625355, 175.99887821240122 0.3673196195849471 M112.69904707020015 79.12760293268835 C133.0133182080723 54.50274019960021, 152.35559441051274 35.36241928352832, 179.66944149610777 -1.733058142189094 M112.76215066501737 77.20122835477119 C132.331565252663 54.22913258254087, 149.73246823734985 33.00483532604101, 179.70595393897224 0.7590713690107975 M119.09907885694233 79.20133520260106 C135.20803065800612 61.5870692829446, 147.33126549600772 43.49387914817324, 186.95614792768518 1.632356988296749 M117.89318421629545 77.46113653730254 C136.39730591145295 56.33957226867686, 154.83070543226623 35.404802198697425, 184.8439099759669 -0.20581040435200748 M125.43703956098065 77.66173629500094 C137.89118369369652 58.13377575426007, 155.12280229257578 43.071751678045025, 191.795484066234 1.3664553165590405 M123.41725628112212 76.70303424392017 C148.7125022957758 48.431074053151065, 172.92264405609336 18.948998413745812, 189.74146688845104 -0.09673344435486797 M129.6455010657404 76.44638699142732 C145.6486949741068 54.72743489804131, 167.69090977060264 34.734371531395205, 198.06652353614146 1.4719636782460555 M128.2333999245633 76.91220123077281 C142.20594904762757 61.85439740364441, 157.79444586862965 44.16762537195847, 195.74513604495252 -0.22362350324013391 M133.21291199560878 77.69863912752838 C158.7641696507768 51.194375804836504, 182.21948305677807 22.236604808283147, 200.51824447083283 0.632556604897033 M133.50843901514676 77.083399245618 C154.60193203346415 52.84857160097728, 176.32570182009874 27.97613541050398, 200.4394973855372 -0.5679976998591911 M137.9976254840111 76.74279223484342 C161.41642690990957 50.883035067388846, 186.55631604492888 21.60082218485008, 206.08050174469537 -0.8873203178397944 M139.89726599293851 78.28979866960441 C154.79135946457413 59.81092150795641, 169.34488376121476 43.1841613690712, 206.36442165373302 0.21060883854556778 M143.5388714053346 76.98391689902066 C166.55884359820035 51.76695502186321, 191.48690986043775 22.811327972599535, 210.6780547411543 -0.2672738084251449 M144.26006410146636 77.67655187548964 C171.99089628341568 48.047372110959884, 197.56422578947127 16.65516499077588, 212.2353481646058 -0.15643038187720038 M151.87078414300447 78.88303140159938 C173.1299887679139 50.023813594555804, 196.43615805256326 26.933658515267503, 216.54153958459693 -1.2311395312107862 M150.88258515579616 77.52971986942235 C166.9439995372556 57.91737608019373, 183.73046418088902 39.260062966295, 217.66050703668344 0.4467401366301118 M156.17731579241755 79.61163465845055 C173.23019671441148 56.979177501772654, 194.38959067265887 33.352057756937775, 221.02149690844848 -1.0718054546574791 M155.53731274546536 78.02455522938288 C172.75898108297113 56.83313326830055, 191.7075986589996 35.79153388790243, 222.36119696003183 -0.4106154747838815 M160.88655907397052 78.25333496044517 C179.28421316350585 57.066491869071854, 197.47869333815663 37.43881645076872, 229.89934408709618 0.24861150688305145 M159.98403514751126 76.52088084585161 C184.51578683573413 50.91683391246649, 209.201741892287 22.32669877632518, 228.88900742817881 0.28774890663846975 M163.76507024608867 79.00547871412252 C188.07322260205353 50.559857159262336, 211.53243038595542 28.493858391416765, 234.2014030039653 1.0739421349500446 M165.4704182394998 77.85846866247718 C191.74926737593614 47.53016825394205, 218.71441462766117 16.351561452684933, 233.8460965061903 0.07398803704577972 M170.57278230815922 76.83368338013081 C186.5753249875999 63.18004635358851, 198.90264889378597 44.92435966338748, 238.85381325445258 1.7084978454144988 M171.7931687024588 78.10532261451719 C196.55920628476457 47.28676827360117, 223.62343960955755 17.75438673578737, 237.9463540336036 -0.2555517555815783 M177.87703276860742 76.44701411500932 C188.31119162939862 62.12748003380348, 202.72167518782825 45.65765682541125, 242.77685505895477 1.618699429147398 M175.51831178895412 78.6266052706203 C191.78151869860955 58.998950061116645, 209.32464267729233 38.61079664063523, 244.51597453745615 0.6550461692367548 M180.36353587682055 77.19780712940629 C204.9830972814085 49.48337630076479, 229.2958697998269 25.696521996892194, 248.9792721758971 -1.365294207311976 M181.6984135550137 77.0782111910441 C202.02245564446795 54.27889512975497, 220.52399595201425 30.826806363556443, 248.9940301453138 1.016647505149436 M185.65041039122383 76.05684632986097 C213.02210817618015 49.04382015555487, 234.3209181318699 22.432826043563757, 255.21318510466688 -1.395053103315405 M186.09285862820337 77.47569356943725 C204.45982971172265 57.463048683947925, 221.18408690794402 36.51971719382402, 253.99363378820442 -0.3566500625859419 M193.59915181120454 76.51318667702161 C213.3326245325528 52.62393606839436, 230.44125447860233 33.052139758180225, 260.7881188536893 -1.6286996023236213 M192.88507243955104 77.18783759105735 C205.43715608710022 60.47330075907063, 219.81740868628768 45.504019199394605, 259.5222169686939 0.02140978467926402 M199.12866014518792 79.5493308274275 C221.90804811737047 49.479372765225044, 244.88596127837815 21.98452360129528, 265.88197517235164 -1.3310849936883358 M196.90279899162257 77.00558707455306 C217.08322111111787 54.60099700509478, 238.65097996253172 30.10244468167867, 264.6987519928101 -0.6971846427972821 M203.5262121425612 76.54105249172679 C217.55434021634136 61.98757123319117, 233.84933117838875 45.04768249988946, 270.3550603190792 -0.8986128708703802 M203.33532309044583 78.13561783018193 C228.55837401340978 49.33525604427825, 251.7515316897085 22.52686355001002, 269.974029738119 0.3742135986329629 M209.26148906174967 76.2325730764588 C225.69232234893389 56.087927121264656, 247.40828320193762 33.67265164016853, 277.0610572932591 -0.9594157732214796 M207.9537481135867 78.26926430159264 C220.6553287531303 62.300043414977345, 234.59271214522798 45.34295373873631, 274.8478818856483 0.850483444227649 M215.29754890214053 77.63638504227181 C233.9643090465174 58.41199028303703, 250.4028881330591 33.9061277382135, 282.6610536033167 0.6018214557976762 M212.82821824207304 76.57609292404284 C240.43561321644697 47.683105365472386, 265.90416543445394 16.03832304715293, 280.08945868796394 1.1436624626354615 M219.90485417215905 77.008428545705 C244.85109498335473 45.89394373028793, 271.7744331911415 14.259760147193, 284.9345134986392 1.543685026835277 M218.54819622847072 77.77282876618109 C234.55819798574612 60.16731242960564, 248.8466657456319 44.82868930099987, 285.45445120109383 -0.543479785886035 M223.9722441211925 76.74791479740665 C249.19626972190358 47.934976723946804, 274.21361002161814 18.859286214683785, 289.59330573765186 -1.7567911535694236 M223.93968562880764 77.11692888826505 C238.48805260202897 61.443630279216414, 252.4845135693418 44.05655086226963, 291.9053690526038 -0.14851510768821186 M229.82096250766608 76.37250270391604 C245.12876396510586 59.68728123218571, 263.4647398766397 41.267351926588994, 297.59267581974194 -1.4043021247681509 M230.28550857064965 78.47550898394337 C252.80897158498092 48.91714302506047, 277.17504698493207 21.552465674480672, 297.3287626735218 -0.7557833175134192 M236.5156298309671 77.41812222588136 C253.04441816296884 54.103891990507165, 270.1566633004726 34.75926708833601, 303.94527375333473 0.9899047697783203 M235.04252798502466 77.31891673847362 C258.3497562476762 50.18187280103036, 282.25379926587595 21.910579834173376, 302.7555010664137 -0.527465596713057 M238.6782710995208 78.4141510198419 C261.63654617925704 53.79188170437634, 282.5278323159854 28.594920407031132, 309.0321262878174 -0.7921467592817351 M240.06192537449854 76.78965847050445 C259.7439378296837 55.17181971336879, 278.1915260921081 33.486706287368484, 308.07799403730723 0.2899888649705247 M245.79928806271442 75.78323779644589 C261.61543349723235 57.42023120840022, 279.86533685875685 41.63676967032788, 313.4166646816152 1.400014694590908 M245.30642304509917 76.69597249029349 C261.7204113728682 58.99039850215232, 276.61536756154817 40.99622677643459, 312.2704699637684 -0.5652104888140741 M249.05148697897317 78.81647896223262 C264.3484798161799 58.54706590958495, 280.6858903848973 40.69790973902414, 317.15569693411544 -1.0148684079554755 M251.07056187439235 77.58075574148938 C277.46326414801393 47.57427310396257, 303.1374589350323 18.1875488122502, 319.10619802682504 -0.3766222228092033 M256.6010508476843 78.57324197785029 C280.01802189924166 50.55670701273931, 301.5779711883896 21.804431270180757, 322.61343555374333 1.6253940896183394 M255.69792354340598 77.71513715934971 C273.28179875160043 57.16132421625044, 291.0589997821621 37.789328100374945, 323.37776597904303 0.619353731633737 M260.4215671772732 78.85634199983816 C283.9812025391205 49.967329001771404, 306.09035892107033 24.097863003823356, 329.77246978988615 -1.8737366020393722 M261.80140830470606 77.16740431252312 C283.8019297412965 52.417932447677586, 304.4916996652914 27.027327854527037, 328.61430237645027 0.2270494347723968 M266.9489411881364 77.8665748190673 C282.4159563007702 60.69122943391628, 298.2740090770477 41.102682014007975, 335.0477934009691 -0.588351576389357 M265.3243981853298 77.55128634149003 C289.03125068736733 51.83476310384415, 309.32889804333115 26.721381057719768, 333.3017543466126 0.3604555802554046 M271.17571872567083 75.40434560140858 C295.6289893138313 50.5355274676133, 317.5958655747744 24.778239299336065, 338.5977768863795 -0.5762708727834251 M271.0413298998147 78.32133269923071 C288.8439769629626 55.6183352445051, 308.3311560789558 34.11057176833688, 338.6001098205579 0.03679485334032506 M276.7454091733017 78.07129762840135 C302.02031321633314 49.725697881677604, 330.1126573750701 21.673300658816686, 343.13819525454255 -1.9018668346822665 M277.0582677632266 78.06829189189388 C300.36356356496304 50.45089880125019, 324.13165796288206 25.09962902869419, 344.5636753008521 -0.5545514273241565 M280.6073986554162 78.92484523569384 C297.5125371009362 59.77291748761239, 309.701653393742 45.40557391759676, 348.59714122585507 -0.98153117121484 M282.8740668940933 77.26739441723713 C301.8702157867141 54.96560387119602, 321.7918280952338 33.15363960274856, 349.20223906453253 -0.30376037125762423 M285.8309778054396 78.45335045482528 C307.77492283131204 51.631460500291425, 329.9334932708265 25.509142446113117, 354.2093481457137 0.6179537834897246 M286.6006509824807 77.34727940640909 C307.1949623733297 53.85819236148964, 328.1472952247002 29.142241465175978, 355.98164407613655 -0.8851887754798327 M294.9163139977592 75.47594637144391 C313.06351943980843 52.064430134378576, 332.3747479918875 30.357655810821925, 358.6105128975437 1.3810438109707661 M293.68023452191676 76.68356798216735 C316.1985961872521 52.54070026084544, 337.37443943451007 27.313177334006916, 360.32436090072997 0.5380056161579319 M298.60847911580015 76.11771376708906 C320.3789546859354 54.0502398337934, 343.65366673121105 28.587276763539286, 364.49220910573246 -0.5020342531234689 M298.10560057746727 77.66778990066062 C312.00561001677096 59.52845497585495, 326.63681442851316 43.74630722865976, 365.6706509068409 0.06214705141329091 M305.2084217839498 76.70950447740886 C321.81342131781 52.72047410715729, 344.5298753711976 32.428208418862205, 371.4159149037051 1.8398941227462728 M303.13732301766015 76.70095690964642 C319.20238709849525 59.233906990410695, 335.2788715716233 40.543736455877465, 370.69884403453494 0.1119684114348729 M309.38699513563336 76.76311803394265 C329.3780166389093 52.66457071735866, 350.770647545374 28.93835093048545, 377.1239851658489 -1.1412254757718188 M308.52404428256125 77.26248939027346 C332.74253712137636 50.475766575739954, 356.78355839170683 23.895041111059278, 376.0425610273402 -0.5658154310197574 M313.4959290452381 77.87112502233862 C338.4730079499797 48.255899757511116, 363.57856633973205 21.43833755931, 382.3536792755891 1.5625002328615665 M315.21969761569846 77.9037897152993 C340.79120749792617 48.41702979245076, 367.41103854610293 16.597747342598836, 381.51099120032234 0.16641903019808524 M320.3818578961892 76.68204372413611 C334.61094746269436 58.87880511805413, 352.6967575940651 40.59973603398091, 382.8996611253889 6.452412226076859 M318.60378483213765 77.31716889087265 C345.24254835041125 47.92578595694606, 369.20811063168804 19.69447412986584, 381.55764244008526 5.8684539346282065 M326.6972928128741 75.80016347498325 C342.45229797354256 57.96754201295012, 355.6514135393716 40.62976727861486, 382.1734435805977 10.3854458936311 M325.19859855040676 76.32941991475103 C335.6002018005918 64.99725817622202, 346.9144763089876 52.17342362022859, 382.246035668619 12.478126771637022 M331.71464942871773 76.76072130641938 C346.9324990636735 59.624443786472554, 358.7469228839674 42.762614975415254, 380.76894401560253 19.586984321172537 M329.88949996057147 76.97074441808314 C347.4060982082269 57.01771477957389, 364.20339919789393 38.08066786229184, 382.2215103794513 18.417933663982154 M334.6372201181076 78.92972530409273 C348.0176191418555 62.858254146765105, 359.26133878399645 51.63112364077382, 382.5249843138288 24.58835829024048 M336.64214105615986 76.46832602362659 C345.8570916317816 66.09268720066302, 357.34054877593076 53.28775737864319, 381.179974637648 23.626279367812288 M339.41320176446897 76.47913124954253 C351.1423987488678 62.28592328827442, 364.95661355388495 47.83296918435013, 383.1802040706733 31.881379216705852 M339.72274240223777 78.31525698752999 C353.694458049192 61.09621921513101, 367.8905657640569 47.00793850537174, 381.9290682827467 30.305760211107724 M348.04666799218893 77.28666597841702 C354.67249062583 64.32019226485652, 364.47145295492294 53.25800948607673, 382.46738350653266 37.11996789143967 M346.415315367333 76.26411155755095 C356.8614291752439 65.3055918508064, 364.8845544200879 54.82850005399335, 380.8887358417845 36.21854283434885 M349.4115969346928 75.91100402225553 C362.42539653761827 63.8035127795455, 374.35584980319123 52.31958963990442, 382.20776637983226 44.321783220981246 M352.24193989151144 77.39587261483817 C358.10379182128474 69.27349004088467, 366.58873013172825 60.21714974564876, 381.59179944232756 42.98174293118436 M356.5628434663679 76.49159096670618 C364.5808986130035 68.5230999149586, 371.49029268382986 62.14720751943457, 380.9659731899592 47.52275516597874 M357.67998671830105 76.11350503214916 C365.0220630117377 67.74030786226771, 373.0176628130951 59.26460487595746, 381.74512201540347 47.815708186871774 M363.55016697063934 77.72382009330835 C365.20548159027186 71.656032141011, 371.6493332982201 68.42295143032243, 380.8640289453388 53.752261382971454 M361.3823951627676 77.21088231563266 C369.79891370775175 69.10490081442654, 376.97691648995345 60.79273022525758, 381.4498850635783 55.61294492005979 M366.7292035718944 75.7588557377102 C372.08075019718666 73.39997837524223, 378.61050466801885 67.74949487935851, 382.23627636636786 60.68766016283041 M366.8948953434389 77.86635996304622 C371.3354923206223 71.82098012921304, 376.68235178948146 67.14274976213211, 382.2627518638893 60.68640102122879 M373.2800137403493 77.25585166303955 C374.81911542023903 73.45564177255416, 378.61533017836894 70.7307674725477, 381.73920508852865 67.56004789408678 M372.0905681731252 76.92887618490079 C374.6393429597651 74.57229744651193, 377.3512155206628 73.21223219925454, 382.4201241962303 67.00629575943955 M378.6740896822905 77.25490156390757 C379.0810308322079 75.42197628875148, 381.18736880721633 74.09681805838815, 381.22750798724763 73.4094102456022 M378.3791399665663 77.23717384032958 C378.94504106382846 75.79924365606269, 379.8464989184284 75.04707678369954, 381.31552125089974 73.39765999617725" style="stroke: rgb(250, 176, 5); stroke-width: 0.5; fill: none;"></path><path d="M0.4133421245881902 0.7926953467748107 C150.20074763011533 1.030846433196268, 301.80907212361825 0.3451455211022311, 382.2835418933245 1.0371230409545253 M-0.45458063507101887 -0.07494670131366546 C149.7344521715698 0.8890528717895553, 298.554482010335 0.1988268249602746, 381.60823006118187 0.38267558284224695 M380.0748754981905 0.42055035196244717 C382.49108233813195 28.386206117272376, 381.61016306046395 59.401428151503204, 381.8375742081553 75.64997906051576 M381.43289283197373 -0.7247305987402797 C382.42524703755976 23.634741022996604, 382.72017263785006 47.3174672299996, 381.54121089261025 75.89637438673526 M382.2492867933728 76.78884127021624 C271.5572180293904 77.51791410247525, 160.1943506901116 77.21401148990569, 0.9874930496795211 75.30657203407634 M382.05639871826406 76.33768367666663 C290.46085993553106 77.78777288903811, 198.69726407646405 78.43199078569684, 0.4151883183489624 76.31784789901278 M0.6834457162767649 74.60817039571702 C-0.647062950618565 54.785140534490345, 0.28085184764117005 33.556476746872065, 1.4937404040247202 0.3430426772683859 M-0.8675747187808156 75.30074973125011 C0.4464112360030412 57.11977991815656, 0.0912227768450975 38.767985100485376, -0.11389571148902178 0.140110713429749" style="stroke: transparent; stroke-width: 1; fill: none;"></path></g><g transform="translate(635.9999389648438 191) rotate(0 191.6000213623047 38)"><path d="M0 0 C0 0, 0 0, 0 0 M0 0 C0 0, 0 0, 0 0 M0.11584930572194352 6.541974791188829 C1.4824399209976504 4.971155167816115, 2.2273621475795173 3.765234096305781, 4.871289249094671 -0.25730251187111797 M-0.13318354670422766 6.277155327473872 C1.7553532477006792 4.533419699354655, 3.404087044913055 2.626612205130742, 5.356193600552625 0.16064671500001487 M0.9468030029069294 11.307931913852274 C2.9644704335767527 10.537701140915225, 6.934941988120543 4.660324401898998, 10.087521451664102 -1.5533958245918393 M-0.5711978568602695 12.688430091410458 C2.6344435344828163 8.411185908597076, 6.142392492590781 5.104910119896538, 10.466770457428826 -0.4246385556563972 M1.0054959831246872 16.45691829258638 C3.6592087436949914 15.242186187565908, 6.286651156477547 10.971060995980118, 14.454195452391584 1.5066477308911255 M-1.0914092418318848 18.744804413896674 C6.846115204323059 11.656446540296846, 12.310372589686988 3.3895735328618954, 14.870643903038879 -0.11019107355503532 M1.329720778595588 24.91206077457881 C6.547115353030982 18.702512366848246, 11.740930129004195 13.46976630414526, 21.558209236988688 -1.8846995239913937 M0.5970548588968132 24.395450995019733 C8.748991256175113 14.352144429315342, 16.652749613421623 4.424706254626479, 20.44415879556712 -0.21355738451932638 M1.4928416079421893 30.097752451662174 C7.405649029210158 23.853469804872223, 13.488862195481172 16.35472822827805, 27.342854895305248 0.8852275138732733 M0.9486480486159579 31.33045021514242 C5.972418000814205 24.210167485065902, 10.558827194003943 17.61177192901455, 26.688157513413937 -0.012093761562114835 M0.6825947462487498 37.85162993501996 C9.076993659196619 27.34164132782983, 18.93525639502892 16.814264009026765, 32.79841210641602 0.8466215004458313 M0.2779071395191828 37.17616549208884 C6.046407223703676 28.61418366185933, 14.150989340623855 20.593817121961973, 31.765618710263468 0.8765958204179292 M-1.1261741564004666 40.567970460835625 C9.360834269738902 33.65513295350193, 18.29779278714031 21.166766329599795, 35.51553380843376 -0.8323459624219218 M-0.3535607436998731 43.39001493118309 C7.375661422598716 32.95361793293275, 16.925271529403577 24.2152798762415, 37.24360523633783 0.9035503949132284 M-0.20218716189273067 49.524320630960986 C12.411918702918486 33.997859959361335, 24.516510019400243 22.24387556735059, 41.8712184304332 1.1792990312307126 M-1.0740052508191056 47.993350065917596 C8.030648002139655 38.9008808495943, 17.044432256774932 27.063999816912766, 42.372986370321144 0.019525362025106574 M-1.5278208411532788 53.66102935135673 C18.22611679673667 33.96433116637504, 35.6965065667293 11.468457348492436, 46.71783766052711 0.475509333255534 M0.42213039684562403 53.75723879639368 C10.879672523729205 41.13302326605306, 23.830420494364123 27.981234026334096, 46.87121558743554 0.1814191302459882 M0.889921493930629 59.68142447387467 C18.888412668053363 34.68250072674188, 41.04849144490732 10.952599033241746, 53.569108677790226 0.9380400996132501 M-0.3430128254835694 60.70889203110377 C21.59029190823117 37.50479499182448, 41.53471177748323 13.748697472278643, 53.20205279136515 0.7833464746772059 M-0.45067700655675225 66.83134573469827 C19.642169667553834 44.858216940882166, 39.36209534472569 21.821730464899304, 58.289121920335305 0.8366254321556532 M-1.0070465431130557 68.31744662537197 C15.784093318297012 48.56803627557129, 31.801570213258714 31.46340065188027, 57.358342082332086 1.163065178811177 M0.4232761824688325 71.22577349501101 C13.09859782750848 57.35550744613085, 28.863056608328474 42.70384670592267, 65.27831331723709 -1.1461982631565562 M-0.30426206884920504 72.22684412202237 C14.248058573066357 55.706132581836954, 29.497224868083396 39.390393781713236, 63.14173398902048 0.033049392749227025 M1.8967829610916453 77.91132874099637 C22.568123480121145 56.085942826458705, 40.48035266186571 31.083927453704035, 67.16249205660834 -1.814915634471582 M0.9656195970016199 77.72458075137908 C21.12653700144885 53.89208219991389, 42.41800132998186 30.74327165234316, 68.94546323665246 -0.013083725016223013 M5.0165726623769515 77.4193539233923 C28.4241082891743 51.758928704103816, 53.30038886272597 26.521154726140352, 72.9788128175238 0.5637909741712974 M7.280815824614059 76.70103827082067 C21.042295152716 59.42318957506444, 36.053396671705904 42.08619590796594, 74.03407097891214 -1.0695006493838264 M10.52407079145648 76.6207991794961 C31.327405980324166 54.51648394629042, 50.11908277017017 35.38849337240128, 79.86480353809623 -1.6387818353761503 M11.524201093729218 77.9106201867851 C30.757383042480456 57.64265940047165, 47.72513380717454 37.032186988452125, 79.32618256602166 0.5882751531388095 M17.697430286442962 77.9963361111596 C34.4706549433646 55.11281182082453, 53.042847280844 35.393778744025944, 85.24433764740036 0.6114648428468001 M16.9190882545692 76.64811553276476 C40.00788347579818 50.9589004579003, 63.01169770941122 24.207533821341393, 85.67422977666513 -0.06556341734696502 M24.601149576411157 78.18943862434348 C43.80726916466942 54.75832230184405, 62.2159356570842 33.25634270871805, 90.51666183354894 1.1116088606919305 M23.37259658581814 76.70802970886102 C45.12153382786751 52.92895903439853, 67.73088693267407 27.75768704150523, 90.64722858606467 -0.3006804523487432 M27.775100349473814 76.10655957089955 C46.645372610373684 52.445421752180145, 68.89919874610834 30.07655208794793, 97.24236827561677 0.4465303741199591 M28.258429562698165 76.89101112356627 C49.69872382972416 52.0635881298102, 71.31727128127191 27.49414301502079, 94.81050139790446 -0.1995236767651818 M34.42049978470568 78.94195410678853 C56.6796450832384 47.341151916362705, 82.6109406385017 21.994204444790043, 98.83242241171652 -1.9109115150173253 M34.6965970888934 76.43492455198188 C58.564560422610725 48.81439488413014, 83.40849617420969 18.30971872293467, 100.50845481240654 -0.1508978071038669 M38.08893832021951 78.27785633386218 C51.69112880603944 61.72419628053245, 67.0930644725983 43.43535613612654, 104.734135170923 -1.5750554007592186 M38.33619326462596 77.52127777760022 C64.01084589163503 48.45838049289741, 88.29340124104016 19.878533052046038, 106.14430185825509 0.5811088067365304 M42.21229285609954 76.86401223830399 C62.84710227708613 54.21433036566492, 81.50887497657529 36.73045645687908, 112.12019074134894 -1.147260931253932 M42.97905958958947 77.46100453074541 C66.70866753510867 49.8339285267019, 90.71829649350602 23.506926659004186, 110.96283976067222 0.36355082324842414 M51.07204966743005 76.94430843129744 C64.06410312246385 60.926527653193, 77.1287496019638 44.78376149109613, 117.41855977307858 0.563624129682033 M48.64285787597758 77.42734322924157 C69.66031930053703 53.81889786296432, 90.97736464086643 28.65519836133727, 116.67411314435157 -0.6195911522440625 M54.76862731732376 78.58340088969433 C67.84882831646273 62.064226569412085, 83.987587790481 42.69779629274873, 123.28182229119619 0.8678926432321248 M54.62414316151239 78.1887157190811 C72.9013447630949 56.732813720445435, 90.80618526084467 35.720995886448975, 121.51648694648674 0.36546817308314417 M58.751289859855426 76.44624789445537 C85.81231066644945 49.09029645466286, 110.35635159099378 19.25626206310423, 127.5564906088145 -0.47839316375183927 M60.122026912378026 77.29451021286535 C73.73506525047881 61.457394555887625, 87.85880332044273 44.730463552048946, 127.31971932979985 0.3351975202224864 M65.5071746081378 77.89828667243235 C91.6312311936275 47.771485991712474, 119.60952284599107 17.685294402774403, 132.81292253000828 -0.49386876030915516 M64.02095479129662 78.58150793158673 C81.95232124303075 59.18172335047383, 98.56246297222704 39.54851747458952, 132.12862488547506 -0.22546802322470683 M68.74726436624566 79.03025675458595 C97.60474994304374 47.428886395404106, 122.28801807012482 16.750744165927422, 136.0343491178903 1.1283093304119376 M70.17042888945231 76.60495646284654 C91.96638160329806 54.14790004608339, 112.81983973093146 30.031814605518676, 137.9858524012345 0.14329963873395002 M75.0954151972917 78.75837661776801 C101.60304578545751 46.14549920631529, 128.67474347072474 15.808077822746974, 142.80284692653524 -1.954713110627793 M75.16778549456718 78.14499640263726 C94.0977363901472 56.18364854816171, 112.80499247241089 33.16891747019723, 142.21160709326224 0.30729496869984985 M82.27432865535073 78.8491670429392 C108.37508146381802 48.14318307867342, 134.98813321769592 14.859621900720619, 148.9883657690559 -0.635311356576608 M81.63791732282542 76.63773471356018 C105.8809552727187 48.529240857813285, 132.46572352586685 18.622372350783152, 147.18642837428044 0.04470543766535684 M84.79457955353546 78.01962775695132 C111.10954165041804 48.86792683668429, 135.26883816626722 16.66362913775312, 154.93470094952704 1.6694416235262253 M86.0160512869491 77.68167136660772 C101.38471395119677 61.88774985958889, 116.15391044005608 45.647048299062874, 153.63091208547326 0.4771848832318284 M92.14058819592064 75.9620607907651 C116.9550940591129 45.78648015114351, 143.72192711617294 16.284638366643286, 159.14852103106136 -0.8820481934675115 M91.82747072812235 77.46877269938122 C112.86803347412186 50.521125373024205, 134.78859655115704 26.513727949543814, 158.38848826456274 -0.4237198486083287 M98.45964814561903 79.4442471212323 C121.79093005278884 52.28596428936069, 146.31947164218042 23.539611949600108, 164.48534006773366 -0.5310725265971001 M97.4702931840673 78.2908980578731 C111.24343724776402 60.397554663927664, 126.39074262404623 44.87384280291111, 163.70514337773307 0.5945044547462288 M100.7478984567054 78.33427002931364 C116.91748811460499 60.25070305162315, 128.49006108441841 44.125051691307284, 167.83854537265665 2.181555850989241 M103.49519262096811 76.97087315468468 C126.48259941745835 49.94184464608379, 150.16247063369963 24.585605992630065, 169.01219808770634 -0.4282359857120923 M108.53935144229247 75.70069174186094 C125.57010547630688 56.205684279206174, 144.3415343282478 38.43370472576429, 174.32536974990512 -1.559673529747755 M108.38817720154687 78.3689167108084 C127.36037219769628 55.66572295449638, 147.54458687190834 32.32862340192679, 174.2060294856667 -0.23356858238193468 M114.09186490645499 75.83737678983485 C132.96554681863782 52.19588351615894, 157.2609135949449 27.42084550797265, 178.9759192625918 1.2552078080436502 M113.85031151698769 77.81371381384557 C127.8329538654994 60.72535622211596, 141.8881944697102 44.689212346240744, 179.43084885933627 1.161772260729066 M118.07616991230574 78.36366865008722 C136.1398343696735 54.0046595989817, 159.19655511578839 28.845697540086178, 184.91914546479146 1.486470645324232 M118.58049435501275 76.60884255978863 C141.54892097555847 49.396279462325, 166.52017478886978 19.20782554202598, 186.3584239248992 -1.1029814937776905 M123.76184301391945 78.24921310357871 C144.54865569292008 53.204986819111724, 161.20906836906536 30.778121970708106, 189.07187316961682 1.9448647089457154 M123.55518093180612 76.46384741123887 C149.57916458936205 46.58877028385763, 175.80172613298276 16.636305397805828, 189.97085659507758 0.773795125090146 M130.70633402440887 75.91413487716116 C144.66474134767395 60.37078305354913, 156.4928315685605 45.93087274103399, 196.32477268114263 1.4164420298688754 M127.81116066008997 77.00066583918877 C143.2146631464016 62.43941833314858, 157.80570487302458 45.59331104814404, 195.84030521105552 -0.31280654506602446 M132.94093824784872 77.25386100179524 C150.548745343555 55.62908453208016, 167.77878856347024 36.74370873923062, 201.23138756248164 0.7627335849454511 M133.72527938104835 76.18470168123962 C155.32341188241898 52.214729395294974, 175.90384296184538 28.248217010251352, 201.91176231055516 -0.8678021582538378 M140.65982424735182 75.73929745433276 C163.3354463081723 49.71200482188915, 187.47105502438131 21.401146874481505, 206.19410686770863 -1.054427344863825 M138.7972171324035 77.83125178338383 C159.28527331503528 53.85714744033701, 178.2194321520261 31.556434350514294, 207.78277685976065 -0.36524100187193653 M146.40600607699287 76.44165251573442 C161.8263031939087 57.15788001879889, 182.3874138331737 36.261948501709405, 211.1531929099363 -0.8727285327071712 M144.92921038033944 78.03657935822277 C164.52403215048622 55.349674159763794, 184.41842496770843 31.191401532926555, 212.48623202139407 0.2582206450720861 M150.7603710498846 78.13261341285202 C169.89419879122534 52.84062980026159, 188.1688249752074 32.81199817128663, 215.77275349323946 0.695444552376145 M150.20882978757834 76.68434062674883 C173.95496242617747 50.55314092889394, 197.2929895042031 23.390525173085358, 217.7700673866396 -0.9656071298204125 M155.87159294111134 78.06387925686903 C177.9350662201717 49.59165128304093, 200.0571163232152 25.48947078205525, 221.12976968073085 1.3631853872378628 M155.53264341631385 78.63136775678612 C171.68998128369662 59.7552619261643, 186.15206135872936 39.82093047155675, 221.88005674321934 0.4699787694429318 M162.42545490075727 78.29378978396893 C187.7334630876911 48.79644770561728, 210.3951701519809 19.235949153695906, 227.90006802648517 1.193889752838757 M159.66928964123954 77.44054760365874 C177.50499194320946 60.229493930063725, 192.90857382473504 42.606065161477005, 228.8395303073174 -0.02235219453648085 M164.61417236693518 78.01395409600352 C181.33099412858843 58.75231348244441, 198.57912077019841 41.91547352978921, 234.04734834361523 0.7014323760305672 M165.3225500625776 78.11370045085911 C187.22189718896942 51.97599208671015, 209.59659734950725 26.730367802321332, 232.23215249165594 -0.6175375507662864 M169.66630626871978 76.3287835989335 C195.97815626635932 51.03681051261667, 218.2248663603249 24.316178015879473, 236.3530969072052 1.6296998679967913 M170.75501270901208 77.27736294848857 C185.55569377046515 62.65207911062886, 198.6883259377643 46.030661695148886, 237.82558510842853 0.1076611185776386 M177.53579079422383 76.35566864461066 C196.20164562268545 56.38800345623979, 215.2194260710082 33.0857148586388, 243.38590936733942 1.2792194649209137 M176.57084980576514 77.68921475503953 C196.28566380943465 53.94358977318869, 215.6812035739548 30.412863957306016, 244.63456028232883 0.9075369188194031 M181.0879056225221 79.24980188899572 C203.49953587584542 52.89322634000337, 225.25300463482642 23.168610780064924, 250.47081366213058 0.8337877686547159 M181.9955400065209 77.66915189561333 C200.90402860129694 55.782160580958845, 221.01611942948804 33.796044005215755, 248.98395336357896 0.600316383451414 M185.78830369172732 76.30435493394046 C206.58113701238247 55.62793347866179, 225.81576123332525 34.35570703122094, 255.21918322065346 0.14000368515891637 M187.6586461615015 77.60571340370237 C214.57379666704426 45.890978456914205, 239.5814947304167 15.098113338092674, 254.13244613086306 0.2539424125750145 M193.88898343091427 78.9753016854056 C210.15205333495538 56.83656336169376, 231.19799231808736 31.593972428014872, 261.2177647310208 1.8074450662852826 M191.87353754939107 77.387154679408 C214.57151005147463 53.04160697679028, 234.2304136335273 29.53434424030052, 259.0553045594032 -0.3074990853174029 M196.1173165281957 78.98159499524294 C214.84197193367123 55.585587842158304, 234.74230508817226 34.882600194977876, 266.21465037230735 1.2334920679946038 M197.42016764541174 76.90787413122266 C213.96457377619345 57.31294726772079, 230.24180151835134 38.99772201242266, 264.7241010528836 -1.0727058351244239 M203.8620201626463 78.32999001941315 C226.81582539722035 52.11421402940891, 248.47279604908027 23.99414322250268, 269.8083055826259 -1.296496207861452 M203.8247963532476 77.49948653424761 C219.74991358664676 57.98349989209879, 237.16949999003648 39.3516488346712, 270.8894922115264 0.6632674466462447 M208.8621847723789 77.41522085976803 C234.60558074712466 49.322788330749354, 257.0628176898209 21.362756531830797, 277.63354129105113 1.4156416446778906 M208.1427677731208 78.43724967197531 C229.87931343141938 52.148151247726865, 251.0935684050632 26.884577823542998, 276.36094106401555 -0.26991758990399717 M215.39324628646818 77.04482392226835 C237.6967243757931 46.84794822134792, 266.7729545639053 20.251320666504355, 281.0505416856958 -0.4189540225355586 M213.23823243371544 76.37113769450714 C234.7243779078842 55.051310461498765, 254.63526611316053 31.06300337907794, 279.7894948355733 -0.41145628628271425 M219.95601389302692 78.53931455876581 C238.84203488303334 57.22964400387647, 256.843314667917 34.279243423501875, 285.3308364456347 0.44865944645889044 M218.56692506025365 77.83226776033543 C239.964982157757 52.49561004988037, 261.8620255998205 27.95899658575899, 285.94750717988376 -0.23832761738859176 M223.46264227112988 77.75701042522118 C251.47355048411274 47.593899039519414, 276.29915732356426 18.193892145713413, 289.34632850898055 0.405403653512991 M224.45588680641958 76.66397339456157 C248.4069454394103 47.78351193344082, 275.46772580024935 18.887213785311893, 290.51141594716904 0.3411324502707487 M230.9256593588898 77.19420812348625 C243.6905610201601 62.49612190821381, 259.7892533936555 45.41182607667446, 297.7552663048081 -0.9989974954124818 M228.88624302243534 76.52823113067797 C254.8272530307155 47.28928074515084, 281.14555135566087 19.467682099797074, 296.3414654161133 -0.5816956832032929 M235.64393858538142 76.0100065595217 C250.9156410556831 61.73994325242809, 266.68305163803643 43.6918530894995, 300.6912715212302 -0.9518411484658031 M235.77292548698506 76.33673386878594 C253.11502854536718 57.41619922752557, 270.01528734432696 38.35142812524662, 302.2644840619387 -0.4092886093183665 M238.89172663871753 78.12648358517932 C262.77806237191214 49.95236805956043, 289.777014272941 19.544831886358132, 305.94931133732143 0.6473778503138021 M239.74745017529088 76.7573175173779 C255.88178108596975 58.529450310159, 273.45027539166256 38.89669672708547, 307.3536067883292 -0.6069065529730722 M246.10461569797286 78.25351935641984 C259.57207725076137 61.65453039843967, 275.13545985148215 40.31544748291212, 310.6747261911946 1.287143602778059 M246.43763949103692 77.64503435155521 C260.2481449913659 60.019446792730236, 274.65410366556426 43.54123046115891, 311.7110526955071 -0.19616673067505985 M250.5685712012601 77.98897297509507 C268.47580662271906 57.80752737704192, 282.80873269255056 40.62053110415215, 317.54920201192454 -2.1312574851122577 M251.25040003444525 76.54857965481028 C273.4630421716141 52.85580738667869, 295.6304057298228 26.035937710015936, 318.7478473121564 -0.32396999232292956 M257.60590407765403 75.84350584716567 C277.85487651051113 55.31492329808313, 298.3033529350682 29.245747843433257, 322.4797979876239 -1.1935600615054227 M255.6514448342 76.14136507724443 C280.61118248293593 49.360950749181995, 305.268722179806 19.850547015407905, 323.9666003634993 0.2439258205756687 M260.2642985152675 79.34075832448345 C282.44330930138227 50.82435538624277, 304.4321183697208 28.764101044370484, 330.7849187973675 -1.9476964704406612 M261.9480711155234 76.72794527735006 C275.6858621014998 61.7713684267539, 290.38863786936196 45.80569346147914, 329.24122800321993 0.5539792331221349 M266.84672516418465 75.79688264323192 C293.31787788103264 49.62108047754742, 316.2467470367057 21.823410144240256, 332.883342379268 -0.8036201100662197 M266.912823503109 78.42980086045134 C289.3665994491243 49.50499003229159, 314.36578117444566 21.40219603172958, 333.59973058154037 -0.02870822119115246 M271.88076404948976 76.64717166459451 C301.0844504077258 44.49608811579442, 324.32063600256095 16.610143477637187, 340.4801921624003 1.4915179255785915 M271.8465669341504 77.91821711937229 C298.6534052343612 47.114126196390494, 323.36007934208726 17.578644571548978, 339.5039148771448 -0.3893186422628787 M277.0879274842956 75.77268761542304 C294.61473944116494 56.27824312069354, 314.6943234315597 34.291832476586535, 346.255964834877 -0.046454511654417274 M277.64155957136984 78.14716277510537 C293.83156277123805 55.97999028452864, 314.09204281825225 34.089604688309045, 343.63217186525526 0.8431088783993914 M280.9135732726769 78.27979502667823 C299.013473281232 58.80443420269424, 318.872300804485 36.84059650790134, 351.39644354678245 0.14080231441829483 M283.4051160059513 77.53907291525194 C302.537819128838 54.75284532240248, 322.61209425547213 32.79094957830808, 348.5031399205655 -0.5185388038801761 M288.2159324777464 78.60033737521184 C313.89460841228635 47.7765914208987, 338.6112429933668 19.31588771393968, 356.56202082320084 -1.5192312350199018 M288.24238502561695 77.49127563580436 C308.2655844492778 53.83397778560592, 328.6216875324562 28.799435486585153, 354.53877773026903 0.513429853722414 M292.45208165357883 76.51646044198458 C316.61995426314417 48.46173348932041, 342.6763944778181 21.32223756198251, 358.85702147724487 0.5966945668828316 M292.53607184655095 76.80706539936398 C311.0046269971834 56.88289930805658, 329.2368670703182 36.647098473904656, 359.12743720708795 -0.16561017780037446 M297.366970613287 79.26078895384829 C318.17104025950823 52.937992090699915, 340.38667813725965 32.01496361966397, 365.3596158129895 -1.9128682489127584 M297.7292158814754 77.20212967692326 C317.8659097274504 55.681691173862816, 339.30263549325906 31.547963236876647, 365.2475266922066 -0.5668175608471699 M303.1793946609456 77.54124994176361 C317.81346218527113 58.409824340108244, 334.7731402705226 41.45582830532048, 370.81084739354725 -1.3738887055549185 M303.60491297157444 77.73562230608347 C318.5544285027395 60.17461304171123, 333.66795342863884 42.67997518632292, 371.25028872334684 0.898542050574406 M308.2710223596674 79.64124938258237 C337.0382874662798 48.35881401591439, 359.59689678768916 16.11952695369063, 375.80060527299304 -2.012033522082959 M308.06909315457017 78.31659013283706 C324.5809395744027 60.287771673600005, 338.4974760994895 42.92009627089407, 376.139522266693 -0.14983063093433202 M315.3723677635272 75.44449555726527 C338.4298775572414 50.26395767418127, 364.6872319263167 19.69656096054389, 380.45665176443947 2.147509528354931 M314.43024289664675 78.13504636978536 C337.0289451732548 50.90672869822419, 360.14786584414776 24.71088278427439, 381.35436048496706 -0.5548418843809486 M321.2518181856377 78.53517569266414 C335.54530781004706 58.742892664921534, 355.51095238117733 37.96020942220086, 384.66241758498984 1.5689837173878232 M319.18218286052627 77.16839723792081 C335.38118404381055 59.12065128779066, 352.1274128001191 41.4070134321321, 384.08081588238167 3.073197118504254 M326.90160643007374 78.22277931973962 C347.28266722650505 49.707709256492336, 370.1912566632085 25.78278831154158, 385.0263247687664 9.53269210209021 M325.28379013739294 76.6125153248447 C337.73390554264677 63.128026272592464, 350.98095192576176 48.184465324149784, 386.3148532176685 8.089449053936391 M331.22683855994785 77.64227491534353 C342.5555518322759 60.34472766896437, 358.8421614056615 45.37836594853155, 385.7238179278249 13.405111302977275 M329.9417760149687 78.38816622654946 C347.4677008327352 57.93251741746005, 365.55261867814556 37.62643923676434, 384.79817076499256 13.490914224071275 M337.231466129335 77.77893326043662 C351.5170233092188 59.27332248070168, 366.1510703407188 41.86184426692828, 387.53033299124013 21.493777726009768 M335.89040820943785 77.57208190563645 C350.0418745699064 61.75706519822262, 363.7577012105582 45.21594394881839, 386.14491905303817 20.177566779010277 M341.7073139513479 75.56850408187061 C359.03412620195127 57.091733123458766, 372.8009179486217 39.989648473996226, 383.4466791471248 26.61920672303941 M341.1742886335225 77.90338733309805 C358.4665939986239 58.327081245700626, 374.19260306563604 37.49092869435531, 385.56083280702734 26.930523877245747 M345.4200523300612 75.92203941060625 C354.1410788357905 65.05510192032833, 364.0911548138035 56.878161342906864, 386.22895204556323 32.89442553024972 M346.4280756284067 76.2146738465356 C361.40989105762014 60.04791114004048, 374.308084291264 44.318019532702, 384.4668941516537 32.59782862410182 M350.7982248285877 77.82607022349535 C363.6840510376121 66.57868031677836, 374.0906432640294 51.9150384990208, 387.3578567116396 40.051602008824204 M350.6592617318126 77.93842579194157 C363.81752137413497 63.91339407065735, 374.4935483636733 52.049132245012395, 384.56240552411094 38.82732881240264 M356.11922050100225 78.36742980149856 C365.63671159660146 69.95726894916213, 371.43927591758245 60.24232891460298, 386.0080304584667 45.76867338561459 M356.5278959099244 77.5380938819172 C368.6629263240309 64.60753016071797, 380.079464063384 51.7911912286133, 384.8880625871211 43.79955566314055 M361.1983016604174 78.83343037146773 C371.40689338783557 67.67861675182614, 378.5225117198548 57.74866148835653, 386.5779560901192 50.448879191581625 M362.12936132546406 78.01452183745499 C367.32418257339975 70.35141676668295, 375.0873324468529 63.0269055874522, 386.4496174318683 49.41350676391693 M369.574576110908 76.73668646436354 C375.116631127851 70.4209720220103, 380.76004778500004 61.97381046263154, 384.37898966970994 55.32093790357712 M368.2740975696158 77.33701974615624 C371.2539436082149 71.80013412468952, 375.4498221682174 66.9691506344624, 386.0006563460748 56.7930727107242 M374.11955167111734 75.99130776435652 C377.2954087662921 72.31463846485099, 380.41430237631835 67.11234214081122, 383.25979411505773 63.21245757260428 M372.28638750990643 77.92408195398332 C375.34793100705537 73.87464976279053, 378.81141330469126 69.95241887975352, 384.6857339449381 63.45398572802612 M378.99914655406235 77.8751588610658 C380.26162051382386 74.42069251628838, 382.14981365422665 73.57882519035923, 384.7093107832982 68.83159051567797 M378.76735427607986 77.13010836981289 C380.01971315077367 74.4589344028286, 382.03954522662036 72.3574395243024, 385.2059779961514 68.95462215289024" style="stroke: rgb(130, 201, 30); stroke-width: 0.5; fill: none;"></path><path d="M-0.5992118793172077 -0.0477120645376887 C134.16095073460278 0.4279230457969431, 269.691932962422 -0.12589061684492986, 383.86318996451064 -0.9756455214973409 M0.03107943963363809 -0.575579462087246 C134.3411231817695 2.1351974340761792, 267.9852252364212 1.381309348098981, 383.7477620913518 -0.051776907124702135 M384.3020263966173 1.8538314942270517 C381.7335822432861 26.557549270987515, 384.15956740077587 55.752930026873955, 383.4157362636179 75.74282147921622 M383.5578275443986 0.631036045961082 C384.0435073040426 28.979676157422368, 383.42542773112655 59.0559802627191, 382.7735045971349 76.57804867904633 M383.9575677007127 75.97220577893717 C230.18728861639053 78.51383561802777, 78.011160591591 77.9259047457808, 0.2644594140773549 76.50046541681776 M383.5961248524882 75.99210367361448 C272.0284388709892 74.17793201985711, 159.93885609787475 75.12995545045011, -0.14016279718129362 75.74438571594979 M-1.2198491040617228 76.66389783658087 C-0.3917110110446811 58.14756056442857, -0.06636901151388885 41.95894584171474, 1.158337539061904 -1.888651942834258 M0.28124107141047716 75.78775805514306 C1.523531148955226 49.19967958871275, 0.6433647077530622 24.533540018461636, -0.9787956057116389 0.5573166934773326" style="stroke: transparent; stroke-width: 1; fill: none;"></path></g><g transform="translate(20.399993896484375 261.8000183105469) rotate(0 185.99996948242188 39.99998474121094)"><path d="M0 0 C0 0, 0 0, 0 0 M0 0 C0 0, 0 0, 0 0 M-0.030647395518595855 6.999709209104173 C0.7069671456937926 4.475838602642111, 2.771921278725341 3.15854658711149, 5.590209265383429 0.3308037627336794 M-0.3852768022240946 6.2836181279766485 C1.521820963070922 4.801496122127795, 2.4227967545845828 2.7959119392941707, 4.611412738221234 0.0436411164549404 M1.241540008140694 11.357911552905618 C2.823867350724168 9.141640018974265, 4.480910278656397 6.304187301135757, 12.02066025133146 0.9896029184654118 M0.12475677589882483 11.914508005648434 C3.9034312633497956 7.295671241978164, 7.77472312672681 4.023799345578096, 10.911456321877372 -0.5932757598266243 M-1.5885022702208023 17.56723105246263 C4.395280919156024 12.130083167124354, 7.460123021257234 9.236775536713113, 13.650081766306837 2.1349067340535095 M0.7175837698811431 18.646472813469046 C5.11617057225084 13.071676761258615, 10.307195126673285 6.864468238996034, 15.182598073504348 0.2295714651164582 M1.1367673708311532 22.85811457754588 C5.979483565372535 15.013075373190105, 11.097117538611373 8.813929554619985, 22.941944595703745 0.4048010105430606 M0.9568224448896263 24.736594454101382 C4.30787277805481 18.34854364300203, 10.242834280835314 13.24823462982367, 20.429598721953 -1.0428708117291805 M-1.1875557237724408 28.638153254751316 C7.654386518818074 22.79417112453818, 14.613153430354023 15.868042401304912, 24.25837240428886 1.830903661811048 M-0.19998337509581887 29.742996223967722 C6.50298443886054 21.738377256378172, 12.982720288227975 15.248008695105726, 25.999823674235852 -0.5748447269189416 M-0.9381884039473256 37.02818682026242 C6.987807714292365 29.994677633672588, 12.017980632686648 22.610395316775545, 31.21269174613694 0.5391104688181763 M-0.9529453153815588 36.69731497839217 C7.630784203895574 28.54111155024416, 13.79479370501217 19.089869405886294, 31.947853146537042 -0.4849308178514953 M-1.0172381446092373 43.01819563526266 C7.029859154365157 33.6736737683313, 17.480301935436074 25.532335008540034, 36.70610243436073 1.1057961584162435 M-0.5988546887739545 42.80599226019882 C8.352159455288918 33.68199396815203, 16.937491511634434 23.240016416010562, 36.88860155157869 0.5206833864655813 M-1.8828801326454467 48.79392942660384 C15.199904253308254 33.88089937168196, 30.843661492144427 15.736134056822053, 43.11364977303498 -1.4173622384340518 M-0.46810958255090185 49.183153040380105 C10.776296901742125 37.22286551607456, 20.65062698619791 24.051736666548262, 43.277039730544914 -0.4207232763663882 M-0.01944406398119014 56.516440225246654 C13.751192869980812 39.75871497320506, 27.642152064013455 24.260014300943368, 47.97325232527244 0.5967912551190899 M0.6989483444717379 54.03638865653734 C18.064319032769617 34.776812048729, 35.182906696873545 13.842805299790783, 47.19097272115785 1.1780210396450208 M1.7516136244962723 62.422259008042914 C16.260447447979203 44.48781679026976, 31.715646054082455 25.9623771921148, 54.17167414514786 -0.6242850799636237 M0.5348116300160797 60.17318345466296 C12.537897369706203 47.35730820763088, 25.437919842599513 33.28418567256864, 53.61076198960161 -0.4149454528988592 M-0.19837704212880425 65.60292863617609 C15.472133138126841 50.704788784769526, 31.17577836943814 32.317761720592, 59.633552545773995 1.8473459831695997 M-0.33152978872424654 68.18669772758106 C17.93387274154909 46.09018834418758, 34.78315269400498 25.752875127868798, 58.20210319859834 0.35590846699438927 M-1.3359766637721648 74.33163259582965 C26.67334179544529 44.04946015520828, 48.63903445906161 15.962214803348289, 63.50737033122559 1.6649239754794607 M0.7884843379443893 72.18864645561574 C12.807456375594036 58.22594981472502, 26.431125538916223 43.54943117025303, 64.59574843933214 0.7645803869260916 M-1.9963135523210696 78.3898237388554 C17.54561887298957 57.58994541867412, 35.35272263742727 38.92285711459876, 67.85448356461539 1.3071673738177552 M0.7060574852441022 78.54217804725943 C13.757078951902763 63.72133861213915, 28.36035124719987 47.25077576001028, 68.17028399952515 -0.690039097111331 M2.771065587261269 80.82791890032296 C28.84819189102707 47.44841774964097, 58.424117407889725 16.38323338783958, 75.83509380001816 0.10309695914520489 M2.6029356728210544 81.02881895672236 C25.32103966729902 56.520176923819555, 48.585971762737934 28.77848309584384, 75.3318525953615 0.14690697748346793 M9.642751193087598 84.1031521820841 C21.535422117643243 65.77127275965529, 37.184568223417614 47.1657805857641, 81.39727585054663 0.3322124583135775 M7.565713000897368 81.39257696749695 C33.474163514423736 53.20137660192557, 58.49421396014432 24.383752884233175, 79.2969311395633 0.5926685817028812 M15.207443078270636 80.10439831099065 C31.246939056952485 59.89604933423572, 52.69152086006984 38.87870813507848, 83.46295002027557 -0.7506840977164018 M12.865553882195137 82.77101455057563 C37.09089933806468 55.8949134156377, 59.308394433655515 28.650462190632716, 85.37205297331468 -0.442037946851741 M16.90345043092313 84.21467263889437 C32.826478865435824 66.84350300068346, 51.81221969653613 45.46389924207524, 91.6169098723177 -0.815311732092951 M17.989443041936482 82.1639988644508 C34.07430870985121 63.748599393026055, 49.18808676317778 46.8006645044329, 90.73658563433776 1.0533967378120082 M22.58042793011985 80.35479282175599 C48.2493588172162 52.366964707469776, 76.48923243086739 23.565020512277485, 96.29279446074784 -0.4310871638553522 M24.29567163380555 82.88361343422382 C49.682453660391346 54.88299089799084, 73.90295231946668 26.490600100839806, 95.7224530888167 0.6205483482954719 M30.188403513973515 81.0835554614273 C54.36316790234142 53.14565370534598, 76.74104637755373 27.406109398352257, 102.46211609867865 -0.9669481661518162 M29.796615008024435 83.06058479338708 C49.938164973775535 58.55638118601129, 68.78203916792079 35.835607428311896, 101.59691349947357 0.8383856055910641 M35.307691582568395 82.37726904409178 C60.8953461778693 50.700505282913454, 88.95938592739193 17.442413347962685, 107.82023259018493 -0.5665302080216392 M34.78239591428678 81.83006542226471 C55.754247104182994 57.97290111917716, 78.65414856593742 31.739962900005963, 105.84228145749253 -0.2456564026998862 M38.118215910988745 83.95638268093288 C67.91145884020366 49.23276761678202, 93.96283093223221 19.438436242096827, 112.47537499837942 -0.04798981261303226 M39.88395741478622 82.06451248868078 C61.33260815894634 58.69956069224658, 81.79920185750217 35.309592730080475, 111.9387057505957 0.39075041941503486 M44.36883256234729 83.61211484880243 C66.97925661294256 57.40242937573703, 91.52599096430305 28.164929912598616, 116.47856084834638 1.875528381257503 M45.13613579724485 82.10656658862774 C63.309693570975384 60.885379853150866, 81.17553022237394 39.81193441349357, 115.9878325659767 -0.06938988524004941 M50.90724309071882 81.98598632866113 C72.40269024351278 59.540963458661636, 94.45056323485159 31.047255943058424, 120.79291704017004 -1.077479640226585 M50.60132377784683 82.95483468470691 C66.22624084507181 64.47483895316113, 81.96500679612468 45.757464720690265, 121.77587840332916 -0.5495185863410654 M55.369022309216035 80.66999684736075 C71.02097685297895 60.187104047122105, 89.25243043708673 41.88991474926796, 126.26300276196315 1.5697514747865213 M56.15224826931424 81.7703167479107 C76.78784473479409 57.27107467124392, 98.32400056201436 32.744715457521785, 126.83670298787519 0.6533564746044291 M62.36359052191373 82.23144843586203 C86.56406643495214 52.144371736298055, 114.24206742174633 21.837228181061924, 133.14472269280049 -0.16821061774247426 M60.751692612831256 82.30747911584047 C79.54204990480746 61.912009423076626, 96.3088013790571 43.16546545509089, 132.07547247329893 0.05444382269776327 M65.16324129192463 84.31312207101672 C92.32591609141268 54.53698390275361, 117.2129382116975 24.982852334751655, 136.7943547707948 -0.6388193159618112 M66.23527434611998 82.42068113448858 C85.70159686421498 61.85784271180203, 103.4103082605694 39.29912783920193, 136.55143720982252 -0.5124050085686775 M71.88911367332348 83.65810103378558 C90.72508024676505 63.378665647761764, 105.58494706671033 40.644505725832026, 143.8545224250208 -0.5267257139107215 M72.59116743536451 82.49524851645643 C99.65530838889558 48.87743953449353, 128.20862006978422 17.75371957080094, 143.75765397613006 -0.4636221190935004 M75.20021997922305 82.20994755102036 C97.1105798040681 59.13097098490466, 118.13169091444482 31.117886374674868, 147.94322234359126 1.2463980402625339 M75.74288004328702 82.95389998273639 C104.2809012948698 51.29916597719165, 130.8868554784687 19.086937203989656, 148.40376374744366 0.040503399615658964 M82.4794180136981 83.13752615368178 C101.61526393337417 57.74240115825288, 122.99998733356423 34.04305814494238, 153.83979670558097 1.5466821025186874 M82.82897676107162 82.6878206209298 C106.63468002993233 56.328595679374125, 130.1791586557842 27.90976254247566, 154.6957139274475 -0.47310117733984214 M85.52243883986134 80.93518031862165 C104.24577896349638 60.52463368487959, 124.2316608802245 40.212931439912104, 157.1739609491026 1.128235574709521 M87.98585637644041 82.56308852702911 C106.66017478303151 63.48384839390847, 122.67617189893147 42.59737906021519, 159.11853611636366 -0.28386556646759686 M94.72385901178752 81.44755582680064 C109.56643825876203 61.425885608928134, 129.21775282358794 43.26855677906586, 164.61177600323094 -1.3420301372042474 M93.62747410557752 81.8517481636356 C115.56419518168715 54.67905151563312, 139.85522776380998 28.063870319687233, 164.71606834287627 -1.046503117666262 M96.76612834258944 83.96977740507059 C118.2261106676935 55.85740057315342, 142.44887970125404 34.268538918867705, 169.54467605607874 -1.1842246813708357 M98.2281193612051 81.73823700174175 C116.80444910891966 60.12380827256172, 135.36271557121967 38.38993487264446, 169.87373283220745 0.7154158275565692 M104.80554213634183 81.27227208439217 C129.3631096922119 51.80476927373097, 158.9925491792165 18.76961878123784, 176.27544078672076 -1.6806554018295117 M103.60213798450728 81.75045887894885 C124.86654176466905 56.863688343846256, 147.65356622949363 32.24393837234366, 174.59825823804135 -0.9594627056977458 M108.1612689561574 81.70094584161718 C134.71314947586058 51.50337311580172, 160.8245861468365 20.24504415833399, 179.70722313326974 2.024349303271464 M108.68671001320614 83.26621064124932 C134.8853083053881 51.71361699903345, 161.60524573137087 20.996218271205166, 179.30045741060007 1.036150316063157 M114.50132285611096 81.20200695770635 C136.68260698233811 58.5162451193621, 158.5789952501155 32.22635439439351, 185.52952152480046 0.949263339892866 M114.82157191348585 81.9442555012445 C141.7303337716886 48.74862374505521, 170.25741351488404 16.901069357496283, 185.0749496285678 0.309260292940678 M119.5315911493152 81.42214265951144 C142.509124266843 54.99030427487138, 165.6299464377962 29.75521063943374, 189.90720764942563 0.37553955988641974 M119.5317943480685 83.2307496799268 C144.33031792392896 54.2645132708006, 168.6393823161919 24.974986014024196, 190.48293836716658 -0.5269843665728331 M125.18180663984494 81.73334247799318 C142.0096776981701 64.95264036210968, 156.61018404221983 47.10161099063132, 195.66649868622 -2.1275668807871 M125.80750440813826 82.79031576489757 C151.03757587741015 53.29107425976348, 177.48667040602353 22.653776769333035, 195.83193353008056 -0.42221888737597624 M129.29457539081287 81.33307489000336 C153.9610806202492 56.74507352709769, 173.22334687558666 32.13070172305273, 199.9839850732963 -0.602821880275954 M129.8866633814172 82.01246935214922 C149.0461424419839 59.89929609878868, 169.25594045055252 36.37535886714025, 201.95852921753186 0.6175645140236128 M135.81134895629376 83.26911067650266 C162.63970524626936 49.538401614789294, 188.3456826548683 21.04963034029398, 206.57260273972935 1.3198109673805902 M134.5347889840895 82.44269240428306 C152.66253325322793 62.94928402574121, 169.65407273979952 43.11357260598589, 206.50812595820463 -1.0389100122727086 M140.46145214940034 80.53969956434292 C170.55671843533185 51.208629211585865, 198.1931012131829 16.21602627080577, 213.37066087363183 -1.4766529859656856 M140.8277331288772 83.28885989229155 C161.78804845739728 57.525597689458834, 182.71730339384933 34.08909775987551, 212.71770847732097 -0.14177530777253367 M144.9480552742074 80.11839358448483 C165.8514177994323 60.47074826580243, 186.48485046553753 34.693711810880906, 216.72781415407854 -1.571396084354049 M145.43140415696453 81.85231315377601 C161.56225405416967 63.63542432644826, 176.50467047485174 47.064201342382056, 217.69556792856503 -1.128947847374505 M150.6372018938277 81.05422371378015 C169.71282758589882 58.50926141189816, 190.69275606200227 36.72081480040859, 223.09409051918223 1.094378274067239 M150.38454460607358 83.0342865347288 C169.94834034332678 60.369573693293546, 187.0927279469266 40.063297306606046, 223.20407966215893 0.38029890241374176 M156.08772203334541 83.2512328134124 C177.7732067931214 58.276056870881135, 199.79249900802773 34.11449714918453, 229.2058633980176 1.2422689952589536 M155.72239441339792 82.52169032797411 C184.91092706402966 49.264344743994, 213.15691696120373 17.39045746813686, 227.93942545678678 -0.9835921583063936 M162.02055509284486 81.79510436956504 C178.53837964626706 61.140696477799494, 194.56357336182734 40.860904187569446, 233.77487947869747 0.35685393107283403 M162.53976382863124 82.519989513836 C181.0058120799828 59.41975279065389, 200.46301336379827 37.61256327047794, 232.31437128767072 0.16596487895745327 M166.28807276043878 83.27979123408986 C193.72327021492552 51.241787295738256, 221.5174543048998 18.32631611315078, 237.018171911306 1.4652228176923785 M167.05410632699565 82.48608250080687 C184.69024020689426 63.08286813515273, 199.6385010093653 45.03383702746822, 238.08193052950435 0.15748186952940557 M171.4039922152019 80.58704856294757 C197.4377223426448 53.691751021054, 224.8804209202122 19.67233263278321, 243.62738322092753 1.4636060163010711 M172.22918181217526 81.31408406398809 C195.7331153699966 55.25135298986294, 218.6747392190266 27.92233213477538, 244.39843686948132 -1.0057246437664276 M176.23240389524696 80.98661045798997 C193.01639081683587 64.26563280663021, 213.2664115938848 41.69585819472669, 247.73808822067474 1.4440032537506937 M176.55783438439218 81.84175198687205 C196.66698254809148 61.36484040468207, 216.03030568810394 37.8505332937194, 248.88661722032373 0.08734531006236068 M184.17374372964875 84.16101332517776 C203.3516840568984 55.38002216391071, 229.73974666826 29.22403318310169, 254.45970721462243 -0.5262834389980355 M182.34171457233057 82.28156041956011 C202.38521785906588 58.24688566043665, 222.37768021237127 36.49580956057974, 254.25925492321574 -0.5588419313828865 M186.85382090652 82.30577251636274 C210.30282772183304 57.09040209669891, 229.08827141229577 31.891519920778947, 257.5645337658833 0.695526914906651 M188.47405710121257 82.72712652054466 C206.0275718276955 61.95733400850921, 223.6324922291344 42.44736322019734, 260.10196751587944 1.1600729778902235 M192.30979010493547 82.15420568750562 C223.2416848449573 48.84710452879345, 250.40516725498955 18.923372053113184, 265.67370692853217 1.3525175964255425 M192.71940312472225 82.58428381492706 C217.11511857929537 57.179587752542346, 239.1957386921125 30.605730484086962, 264.152928964499 -0.12058424951689517 M196.67917926300788 81.07760944045818 C223.67660080372417 54.9338675042485, 245.27478928598538 30.806197466150337, 271.9462390156818 -1.1117491675896929 M198.49637799308175 83.0775088361997 C223.86628463020293 53.17863567361476, 247.7156039671904 24.64272320073168, 270.08564743179653 0.27190510738805074 M204.385861809812 81.11008268118111 C221.1414035073308 64.67645946386598, 235.3955707098972 42.97636536807435, 276.2649878314068 -0.0284088461782801 M205.15741348497522 82.68099448446391 C221.61077878897765 63.943075792795014, 237.30657158285624 43.6083540834014, 274.7886875089561 -0.5212738637935388 M207.82908443346062 81.04870326152627 C227.08024197763075 60.244064631683955, 244.9331144539889 40.49599084707313, 278.92568443882004 -1.403117962488409 M208.7715255756248 81.62507666821216 C235.6802544521929 52.438131086441004, 263.3963117912277 22.422420466288607, 280.1484479836999 0.6159569329307715 M215.5694393130284 82.47835133745428 C238.3429980052413 56.42287696861054, 259.93698809903805 32.022124723065616, 286.82290539199624 0.10876926444061041 M214.40403666871453 81.3273076625457 C241.0508117345765 51.799231722804095, 267.7566708914861 19.154339797228687, 286.328884072212 -0.7943580398377037 M220.01789188662818 81.871886010817 C246.8595395979709 53.75785357948337, 273.691577682503 24.012430730713128, 291.13910050404814 -0.6976224385394687 M218.89935336446663 82.89888275095701 C247.02307463231745 51.21602484749763, 273.34832098639015 21.33505206857903, 291.5542851872146 0.6822186888934141 M225.62175308333465 80.61496868757511 C243.844598867155 60.60547393390632, 262.8423488596157 36.973540638349235, 297.5305650790505 0.44813395953212876 M225.16068869156518 82.57571358354743 C247.89935233987188 56.035654758339504, 269.2926689883539 30.78854670160848, 297.38899716989175 -1.1764090432744752 M228.5537070912606 81.1062397195804 C248.70991296273365 60.68324179085087, 270.28667502519136 37.621811099676556, 303.81646768011615 -0.6080555644928722 M230.93283987523233 82.22485481880932 C243.7985491381899 65.92157771749761, 258.3409049409157 50.481914248335556, 302.52020005796567 -0.7424443903490214 M236.89778358948075 80.78214176279357 C263.01966141071546 50.59757343400669, 294.44648426186365 15.512145484923337, 306.1648223613197 -0.41998272965369665 M237.08191056915217 82.77557748184404 C258.413274348808 54.85554068130904, 282.13420699007514 29.444896435468728, 308.03763031762037 -0.10712413972882473 M242.33838551610785 84.21709641906644 C264.97947835807634 54.18151482615146, 286.8296982757366 27.344972508878037, 312.78151643577394 -1.8409603090986195 M240.37808862354683 82.72579560614402 C267.5069160981394 50.98994903990696, 294.8445194218596 19.576835038008312, 313.216358611578 0.4257079295784649 M248.3462613002167 81.14832759435971 C267.2497003528031 56.85394790250639, 289.2752976111501 35.257704178055846, 318.09628270755366 -1.9989987718668658 M245.7753683171005 81.5731395918106 C271.09387996174564 54.72204748366974, 295.76414681981987 27.28041751324733, 318.79651203102276 -1.2293255948257524 M249.86753262991994 82.57603814052516 C273.0112498986129 58.45489690527681, 290.185371400174 38.98731014547327, 324.45172723977157 1.8033703588932894 M251.19432812503516 82.32138284733617 C265.9071225699486 66.32786382987995, 281.8232524398977 48.692195414836235, 322.7660518636767 0.5672908830508732 M257.5096666842924 82.78823321352348 C273.93682208436127 62.68357595637421, 291.0218609307587 42.59862348375048, 328.28930158650246 0.11391786414262128 M257.8018529510351 82.91151514782206 C272.67212975612335 62.82460511894209, 288.36693137596325 45.46255180312172, 329.640495825724 -0.38896067419025826 M261.2305039014469 83.46089691520653 C283.91778431559 58.40218526373389, 305.4079729010295 33.30472951623723, 333.83833056085905 1.430893470732883 M262.79391189532237 82.72816927676074 C282.9060771529809 61.3703565051532, 301.4001622613673 38.65731242103582, 334.2456958298867 -0.6402052955567683 M265.8681711814676 84.4375252317577 C285.18335087012906 61.56809733675598, 303.02531695569735 41.8648918067538, 339.3019844669161 0.22784920962476463 M267.01922145759056 82.78540396447623 C286.4917083443953 61.086033452775595, 305.1348358769711 40.85137457657606, 338.997560217349 -0.6351016434473422 M274.1104047994387 84.05575477436054 C290.6896905402463 59.789612214902604, 311.49045465671014 40.21151832967575, 342.54630686778637 -0.9461839423299239 M273.04231845003335 82.4595826287927 C297.27357104003903 56.118689457438634, 321.4002867241986 28.849380648186553, 343.68483152583303 0.7775846281304553 M279.463873318473 81.47399151986681 C304.0053458456196 51.69071097756695, 329.1441936874428 22.090598849111743, 350.63012778855415 1.3128368760523585 M278.20663291037283 83.22225211570256 C297.16173367526665 61.84156339868861, 315.72144338384203 40.68175435828158, 350.09274969253244 -0.46523618799920996 M283.7840907926453 81.45094374923723 C301.78503328846045 60.3930693030333, 321.01114941812733 36.33822967802556, 356.7743866293036 1.5905951509549823 M283.25815130479316 81.82592563780712 C299.7601028584339 62.818447574169326, 314.82785882295224 44.83455693912283, 355.06612496714075 0.09190088848765754 M286.9644445350683 84.44579868932355 C305.90082816981203 64.997312258634, 319.1560798470964 45.381495258955475, 359.3314550781474 1.981043734229786 M288.12819429601643 81.81050941609878 C305.85301104637074 62.59490639725719, 325.2748887944091 39.80282364571472, 360.5724108248801 0.15589426608352142 M293.1221673498168 82.64304587108657 C312.19674942321046 63.83342298459213, 327.4459700911742 43.998669840740675, 365.3150503141606 -1.1340622181624838 M295.2131389752268 81.93437603817895 C321.73892853775305 51.11276177475851, 348.26357365657003 18.389511802051878, 365.32536716943474 0.8708587198897533 M300.28736530000344 82.05265377137798 C315.17778314245095 61.8340995175734, 332.4625260201923 44.43550135130978, 370.08926277545567 -0.9849886043700735 M299.15719663014636 81.68079110003995 C318.5201691220254 63.29647508285832, 335.5271785434578 42.567460637758266, 371.56783810102667 -0.6754479666012685 M306.58898993970314 82.53489317115854 C332.3484190594489 51.717681632826455, 357.0761833934686 23.054363679847505, 375.586351304136 3.8749297222360326 M304.1321349769593 81.68898656428318 C327.14265008421796 58.40516180822638, 347.93108224757145 33.95463152852875, 375.3832970613686 2.243577097380097 M307.9438660820285 83.90051379728003 C321.083862606197 66.61815895003359, 338.2167777263802 50.4553454460582, 372.6200070303331 6.650627273953177 M309.62005592838767 83.26058740190102 C324.64529187802236 67.16169364852927, 337.93873730406733 50.28718948630865, 374.10286071770145 9.480970230771817 M316.2426640310543 81.9355676807032 C333.17441637407137 62.67590730822628, 349.82124278752485 43.859551144558864, 373.0076797780746 13.801873805628247 M315.6931178256156 82.79068495049486 C330.7104661810393 63.56685247474789, 347.18009148166755 44.875403512514566, 374.52136536866215 14.919017057561405 M321.0389273498933 82.50158579827976 C330.9277048111635 69.10852147712637, 340.7451515690001 59.84939377365052, 373.3868974854729 22.19996591911297 M320.79631320636526 83.27426355605704 C337.29008508846374 62.75708897956313, 355.1447242155386 44.51153835501613, 373.80743636447255 20.03219411124121 M327.7350450926203 81.56040143097049 C338.6112965778435 68.46482642182205, 352.9882151862103 51.482221676873095, 374.68153358160293 25.37900252036806 M327.02719103682074 82.73727393118894 C337.9683459922654 68.36054092789264, 349.15419310782784 55.16244887417976, 375.0635054838169 25.544694291912577 M331.27127957234796 83.27432680562715 C349.6979957700381 62.52445679096394, 363.7689580163515 46.062326297602695, 373.79083475457753 33.63606146124542 M331.91863447970417 81.74305979688297 C343.5966015528203 69.00562126886162, 355.39381176282245 54.91642018696659, 374.1085887019175 31.936853508068026 M338.3117385931511 84.03097645321046 C347.1318701406779 72.89193043746592, 355.238531869257 60.761423524283934, 375.1193341544807 40.81073247792838 M337.7185831261997 81.82343124074046 C349.36144465020436 67.7551041526938, 362.3728113714834 52.830588993353246, 375.10194939346763 39.63093361503152 M340.93340321814253 82.54344385057217 C352.79599137833435 69.47890565471084, 367.7085975792143 53.66283730775227, 373.546174306397 44.61174593160047 M341.17281076402946 82.9850913587538 C348.73061052537776 74.04162745060239, 356.41139406635523 63.93581787756145, 374.60617124566124 43.72400115562721 M346.81210000139686 83.87512477867308 C356.06776850634975 73.09697992384461, 366.0065221683323 60.012527760087195, 375.3944300234389 52.943601549113566 M346.8046476093775 82.14070961352441 C353.34391766249433 76.15017299191994, 359.39060029830904 68.2274095696564, 374.6502311712202 51.7208061008476 M352.9115287560269 81.53989396436488 C361.9884265921401 74.74174191426079, 368.03666594457457 64.52663065754591, 375.96102160968127 56.68610136142823 M352.69775807496603 82.61534847604459 C358.90897267769316 74.96279619099936, 365.24184085383337 67.18518997055459, 375.3531625113288 56.719564788293866 M359.6692347861074 81.52692843860834 C363.8315414927268 72.84461461652181, 369.64365804263036 68.61971317748961, 373.20574262823686 63.79452634539635 M357.77586300197913 82.57753678391575 C361.2922863489029 77.76500754322845, 365.4860870576502 73.46296564666034, 374.70683280370906 62.918386563958535 M364.4344608688482 80.69452285996873 C368.356954211492 77.79364659786845, 373.02446451404427 73.07290562767639, 373.41361737479696 68.29655583675493 M363.49935952622786 82.51761323411253 C365.64163950918095 78.6471904626644, 369.1387879427244 74.46331780013061, 373.344286173957 68.9101600914496 M368.7693125059531 81.677154010532 C370.2641601485312 79.87506001646308, 371.3575814031982 77.8656187537312, 374.9832065091725 75.33370158362155 M369.0689379875717 81.89877722044248 C370.2288949939784 79.8815348945858, 372.71528834986924 77.30017653821037, 374.70304455019306 75.03577968694222" style="stroke: rgb(21, 170, 191); stroke-width: 0.5; fill: none;"></path><path d="M-0.9184941742081669 -1.0690838915875565 C132.52233380988193 -0.35302091664524143, 263.22322396057 -0.6640572137905881, 371.1814403143637 0.492382354245622 M0.24037530293305953 -0.18652491418172085 C91.91445848920576 0.998549044735807, 182.39840152904296 1.7497519687617515, 371.8241636507511 0.5541794176611502 M371.67776614986354 0.3960480932146311 C373.7673832714351 31.31867774774123, 371.2984194695743 63.158080244675055, 370.24139476381237 81.31284149922428 M372.12723658699537 0.7835188833996654 C371.1342464233749 29.61415104310061, 372.1994659150951 61.40471648374638, 372.30980302114034 79.44783097784963 M370.91336956869293 80.75237413565597 C271.3492356288345 78.87120372513263, 170.14109547433318 77.81279946583577, -0.5036577135049247 80.9892676050498 M371.8673625851004 79.41603398011624 C284.9140967571094 81.4031905753705, 199.3448461720692 81.94438290785381, -0.4713961688173814 80.5436568146196 M1.048648064956069 79.29071297682819 C-0.5411105521705204 64.73563326294862, -0.8967282541778141 46.093542211788794, -1.356278771534562 -0.9325807448476553 M-0.9428813038393855 80.17655185144392 C-0.8126899951656521 57.94560985448541, -0.8089348131378353 37.632547915815486, -0.1966609237715602 0.9805486230179667" style="stroke: transparent; stroke-width: 1; fill: none;"></path></g><g transform="translate(165.99996948242188 120) rotate(0 7 16)"><text x="0" y="23" font-family="Virgil" font-size="20px" fill="transparent" text-anchor="start">B</text></g><g transform="translate(108.79995727539062 125.80003356933594) rotate(0 14 16)"><text x="0" y="23" font-family="Virgil" font-size="20px" fill="transparent" text-anchor="start">Ba</text></g><g transform="translate(135.99996948242188 122.19999694824219) rotate(0 64.5 12)"><text x="0" y="19" font-family="Cascadia" font-size="20px" fill="#000000" text-anchor="start">BaseService</text></g><g transform="translate(129.69998168945312 285.7999572753906) rotate(0 70.5 12)"><text x="0" y="19" font-family="Cascadia" font-size="20px" fill="#000000" text-anchor="start">ThirdService</text></g><g transform="translate(748.4999694824219 216.59994506835938) rotate(0 70.5 12)"><text x="0" y="19" font-family="Cascadia" font-size="20px" fill="#000000" text-anchor="start">TokenService</text></g><g><g transform="translate(395.6000061035156 133) rotate(0 215.80335044594017 -2.5693218095868886)"><path d="M0.9511667635291816 -0.6291576828807592 C33.13214252255857 -11.0500844484816, 120.69236270450055 -72.20934580626587, 192.3294774558395 -62.40447441004217 C263.96659220717845 -52.59960301381847, 391.2442428853363 38.140074761087696, 430.7738552715629 58.200070694461466 M0.8328456203173848 0.8509383404720574 C32.904252935750414 -9.54832926517042, 120.78819561819546 -70.58876883959087, 192.2646207196545 -61.04398679758422 C263.7410458211135 -51.499204755577566, 389.92500125418417 38.307297417667385, 429.69139622907153 58.11963059251197" style="stroke: rgb(0, 0, 0); stroke-width: 1; fill: none;"></path></g><g transform="translate(395.6000061035156 133) rotate(0 215.80335044594017 -2.5693218095868886)"><path d="M399.1518688234416 51.83226825426328 C405.8536359719783 55.64314030757999, 413.84966053943486 54.836048164686545, 428.95057505193165 57.94058887344785 M399.9079146482897 52.92027949764389 C411.3008822700487 54.38352973659983, 422.96654643714874 56.28268087785274, 428.94604877113363 57.452488472322" style="stroke: rgb(0, 0, 0); stroke-width: 1; fill: none;"></path></g><g transform="translate(395.6000061035156 133) rotate(0 215.80335044594017 -2.5693218095868886)"><path d="M409.58881098814425 34.16336221465541 C413.83517965977467 42.24393702726862, 419.3579769136577 45.623820372838836, 428.95057505193165 57.94058887344785 M410.34485681299236 35.251373458036014 C417.9162925764996 43.36883352220512, 425.68001247545226 51.87366337257701, 428.94604877113363 57.452488472322" style="stroke: rgb(0, 0, 0); stroke-width: 1; fill: none;"></path></g></g><g><g transform="translate(190.79995727539062 258.6000061035156) rotate(0 -1.3285432355990565 -44.94365187026561)"><path d="M0.12930332757532592 -0.7990746114403009 C-0.2589285578578711 -15.53324777819216, -2.1066996660083537 -74.46373499371111, -2.530520006641746 -89.0882291290909 M-0.6117627983819693 -1.5220406960416586 C-1.2860012152325362 -16.36749191065319, -2.5199212240707127 -73.35156422187575, -2.7863897987734525 -88.21896511872299" style="stroke: rgb(0, 0, 0); stroke-width: 1; fill: none;"></path></g><g transform="translate(190.79995727539062 258.6000061035156) rotate(0 -1.3285432355990565 -44.94365187026561)"><path d="M6.71683480032611 -59.12821413193057 C5.991954352813815 -66.84533152087583, 3.826701888084611 -74.70351274880653, -1.8533382480125873 -88.88755834099837 M8.589268947959722 -60.85947370983819 C4.857942684787839 -67.03005778346477, 2.515309979040583 -71.3833499172685, -2.013805715283379 -88.81267096937634" style="stroke: rgb(0, 0, 0); stroke-width: 1; fill: none;"></path></g><g transform="translate(190.79995727539062 258.6000061035156) rotate(0 -1.3285432355990565 -44.94365187026561)"><path d="M-13.800081505640028 -58.70851462058892 C-8.711375988536458 -66.56661494130236, -5.065431943342449 -74.54367155475168, -1.8533382480125873 -88.88755834099837 M-11.927647358006416 -60.43977419849654 C-11.21127243023989 -66.85619547490481, -9.105255466872777 -71.30049037269187, -2.013805715283379 -88.81267096937634" style="stroke: rgb(0, 0, 0); stroke-width: 1; fill: none;"></path></g></g><g><g transform="translate(557.9999694824219 42.599998474121094) rotate(0 42.26510848791804 44.027241644635794)"><path d="M-0.7304172489792109 0.4289745245128871 C13.731501681233445 14.854578800375263, 71.90097313982746 73.15905251440903, 86.22929717563093 87.6255087647587 M-1.699080199794844 0.6396757030952722 C12.633640884660805 14.996067442443845, 69.96591454804255 71.77576846504894, 84.76588852594607 86.14657982681878" style="stroke: rgb(201, 42, 42); stroke-width: 1; fill: none;"></path></g></g><g><g transform="translate(654.8000183105469 53.80000305175781) rotate(0 -52.08787046889779 32.723699765815404)"><path d="M-0.9103096213191748 0.04426930211484437 C-18.228918831174575 11.19243319692711, -85.98710266413788 55.63396352392932, -103.07651761434973 67.0182346727699 M1.3873569879401475 -1.570835141139105 C-16.101406921896462 9.229805960558977, -88.02093656068357 54.077943366769084, -105.56309792573563 65.80002376328223" style="stroke: rgb(201, 42, 42); stroke-width: 1; fill: none;"></path></g></g><g><g transform="translate(840.3999938964844 280.20001220703125) rotate(0 -220.08687686467078 61.399431186779395)"><path d="M0.6438633117824792 -0.07407694794237618 C-28.877193789308272 20.382190253958104, -104.06716511311632 117.0943905180941, -177.368329712376 122.57801761887967 C-250.6694943116357 128.06164471966525, -395.4251098360866 47.92668604316811, -439.1631242837757 32.82768565677107 M-0.205669625652954 1.701500106258318 C-30.215813902768616 21.990693409545347, -105.11302182143243 117.92522339006575, -178.5483463906776 122.87293932150118 C-251.9836709599228 127.8206552529366, -397.1715468924772 46.50353701403054, -440.81761704112404 31.387795694870874" style="stroke: rgb(0, 0, 0); stroke-width: 1; fill: none;"></path></g><g transform="translate(840.3999938964844 280.20001220703125) rotate(0 -220.08687686467078 61.399431186779395)"><path d="M-411.0072601870531 33.76548304699726 C-418.961057881125 34.37748892456404, -427.5880116096018 32.76468081087509, -442.17757119524293 33.04082222166471 M-411.4020340195754 33.63781336147703 C-422.16958862087415 32.16472684627139, -432.79615969415386 31.875491832251264, -440.39798269613647 31.557262589922175" style="stroke: rgb(0, 0, 0); stroke-width: 1; fill: none;"></path></g><g transform="translate(840.3999938964844 280.20001220703125) rotate(0 -220.08687686467078 61.399431186779395)"><path d="M-419.2906261557371 52.540622210654284 C-424.9014843580781 47.85425350939619, -431.2104672757251 40.98751544559323, -442.17757119524293 33.04082222166471 M-419.6853999882594 52.41295252513405 C-427.4318359689398 44.06298637607467, -435.058389382494 36.9738889308013, -440.39798269613647 31.557262589922175" style="stroke: rgb(0, 0, 0); stroke-width: 1; fill: none;"></path></g></g><g><g transform="translate(177.99996948242188 199.20001220703125) rotate(0 11.313133718431914 -0.24426462604198207)"><path d="M-0.6712639298290014 -0.18115677572786804 C3.1844842109829186 -0.09240017868578432, 19.678270033374428 0.9240383412688968, 23.381303254142402 0.9108894970268009 M-0.7550358172785492 -0.05393585284240543 C2.985454912828281 -0.01565140117891132, 17.050368207441643 -1.1050012602377683, 21.12247185830958 -1.3994187491107732" style="stroke: rgb(0, 0, 0); stroke-width: 1; fill: none;"></path></g></g></svg>