<svg version="1.1" xmlns="http://www.w3.org/2000/svg" viewBox="0 0 510.95703125 420.25">
  <!-- svg-source:excalidraw -->
  <defs>
    <style>
      @font-face {
        font-family: "Virgil";
        src: url("https://excalidraw.com/FG_Virgil.woff2");
      }
      @font-face {
        font-family: "Cascadia";
        src: url("https://excalidraw.com/Cascadia.woff2");
      }
    </style>
  </defs>
  <g transform="translate(75.15625 171.44140625) rotate(0 165.16796875 32.369140625)"><path d="M0 0 C0 0, 0 0, 0 0 M0 0 C0 0, 0 0, 0 0 M-0.5160401917667935 7.0040415123599695 C2.3106216675241558 3.7669331359688045, 2.988750131068797 2.3719545086881872, 4.3529559697532125 0.07697039654825266 M-0.3707807264895985 6.023689907838695 C0.9271168235468541 4.358463965683308, 2.756786533511137 3.1170168376327414, 5.23494281578297 0.06401509901855529 M0.616129715098034 10.977656090676366 C3.4147274121095577 9.452742893471639, 7.281736545528556 2.707976009186367, 10.577345915091168 1.1632782633498073 M-0.49644154523502726 11.6503485534783 C2.536098941221402 7.794226607218345, 6.239079087717695 4.142507785149085, 10.078735397708547 -0.0650063131854175 M1.4682094351807375 20.09796249019044 C6.997511709355169 11.139533441085833, 12.34764554964083 4.694881408513638, 17.143552287950595 -0.549543000112755 M-0.7438074118038873 17.832741695363694 C4.699649396910027 13.962393958342744, 9.32763884128324 9.463297137888604, 14.93089326052316 0.1865440501761606 M0.6689947398565028 23.005444800197242 C4.002996670733667 17.521813839595236, 10.958521291879977 13.07348592095948, 19.92701545199182 -1.2398951077670333 M0.27978293990709524 23.36264944234407 C5.8788707461052905 16.80454030174173, 10.971969890051284 10.271889850924289, 21.891749026531244 0.4144814847200635 M1.939467170326914 29.16027432470416 C6.642390351615573 23.28363052961496, 15.427358833719184 16.291396398031942, 26.178847382452698 1.0785746084538044 M0.8888723375787393 29.897102737564794 C6.314951186147539 21.48370365907296, 14.574541196321816 13.765596176284813, 26.400872393187495 0.4478677878168167 M-2.0503982287925204 37.54773171786343 C10.38517783109139 25.388913715023, 21.467394582471595 11.404059812141725, 31.139144652939237 -1.6526252775207873 M-0.5897038226109466 36.7274125086156 C10.847966282986068 22.57726670827713, 22.80578257613857 9.277246917967002, 31.421626535660423 0.030335556833374966 M0.7209360871137136 42.42653513382726 C8.981917323370903 32.78992363433962, 19.448023634625457 19.738016533250775, 37.02533022109543 -1.4497103708702603 M-0.06739139448394837 43.070670933086205 C14.495163961525453 26.432160759053453, 28.606835807802373 11.24891242676604, 35.92985726315652 0.9751369600277862 M-0.09160692431040474 47.34296896741621 C10.738227599395648 37.52762068714596, 18.395744412554503 27.298002104441714, 42.53062566052728 -0.5742970976651662 M0.21290543116621308 48.45888017923467 C9.90960740499653 38.091505293077105, 19.140116196565316 27.78823356233063, 42.03736525084429 -0.7475329052330011 M-0.35730568945886176 55.59791679255973 C14.105679293772067 36.24751719735104, 32.766811074084615 18.231443326694816, 45.825578928878784 -1.7457260630849554 M0.14423732950805146 53.58098534442793 C17.160422123136417 32.83382816970558, 35.293651327154954 13.517669964069228, 47.61843380793023 1.1521406293090628 M1.5318877493123324 60.03453800407837 C18.962857351684118 36.690252012521256, 39.133431901005174 16.30408249203557, 54.056536599755944 1.5712613067998298 M0.38213760974805666 60.44555109692405 C14.92421970495405 42.90543300568344, 30.67898461373935 24.453801834902094, 53.43330110958284 -0.6290848389790646 M2.8158789945997 63.99588159567881 C22.07278575240752 41.05926643112754, 45.544905667488855 12.273262691371691, 58.34717163080276 -1.0458005931902683 M0.12415347604525095 65.7133754538672 C21.191711867660963 41.820132073401595, 40.196427099915304 19.537998483670968, 57.75468796500863 1.175167858160659 M6.648254206980766 67.33901490062219 C18.660234446116483 52.28417705346131, 31.192616986933366 34.75705801880348, 63.296955595625235 0.7352218108742008 M7.01666894053966 65.08661852195603 C24.955652919346978 43.49306109072348, 43.00812814733142 23.419124338962092, 63.491270049376084 0.4882188180951843 M12.505394670156491 65.50566729506568 C23.87808659438945 49.725401832469174, 38.65799184080277 36.12283841593689, 69.98268645186737 -0.2112620861862169 M11.189019388494742 66.7544462007852 C23.676076658658715 52.57237097447354, 34.17360176055482 38.27386202449202, 68.81420567189171 0.05300770908255714 M15.52583445773287 63.913909852938744 C36.7217492650598 40.46553570890164, 60.06554773169131 18.82696326129016, 73.45696077313515 1.2437562895579504 M18.217849245078995 66.15970983772168 C37.01492844684533 41.26331612586809, 56.54777271139119 18.939130209295953, 74.28060800772401 -0.4805828715102507 M21.575434027353907 64.27408946906192 C35.2374082669247 51.71072440052591, 52.42472009677637 33.85807774856461, 77.7497015170726 0.2715613329272202 M21.81728556949892 66.6898803510235 C42.305065052232855 41.15001213745896, 63.62307778383452 17.379320534682336, 79.46007286607949 -0.3930507554252216 M28.745852452625602 66.30115221736467 C43.6152917125544 44.87689007930112, 61.086797198774704 25.984351752930998, 85.36663025728569 -0.20196338214893217 M28.96241028692302 65.76437158805764 C44.96182836963357 47.315900467312076, 61.14706631411257 27.194335444661704, 84.05815092212663 0.1920491547046197 M34.35607519119194 65.50231999266754 C45.11405853362333 50.19312797218899, 60.04785471620255 37.10124997146609, 88.29079495141843 0.29134153915002514 M32.51578795655778 64.99721696708212 C53.236906266513074 41.31244953054469, 75.17429812644635 16.899489304867913, 90.54287548507193 0.47078152713730503 M39.79482728766845 67.64412344912276 C50.80917630261176 51.67896363306491, 64.6173735366353 37.07549092091384, 97.48104217307687 1.4742346707535603 M37.69487897458122 67.0391024156867 C57.85522072412021 44.2406182415822, 76.97414672111447 22.461898158726164, 95.26823473008395 -0.9538460407601974 M44.802396286670614 66.76653074088254 C66.09029966266114 41.12347336075474, 86.25016498435036 14.752577948766785, 101.87354487990493 0.11175040748221221 M43.97886248717134 65.96649511146107 C65.5780160938364 40.7202173838585, 85.28869089377073 16.049930454787237, 101.1006994663691 0.09079361927015128 M49.75245514584243 67.19707626276744 C66.87223002161966 49.398054322866514, 82.81173070971334 30.51509404989344, 105.88027464550865 -0.27647767673456514 M49.01545930353463 65.67077222266329 C68.52677364071951 42.09176882343023, 89.13436402232726 18.15133681507593, 106.54269536909592 -0.5657293954046949 M52.494475438789905 66.01789358870691 C75.97701823501781 41.16840725619261, 95.80695947702901 18.592790506155595, 112.39052942753203 0.3714598129237672 M55.08834509883958 64.70025384666032 C68.30586137857294 48.311638247963174, 84.10539829552819 32.25303447116661, 110.35913074747093 0.7257745834733029 M59.355255123157036 66.85339211352151 C77.8022398351872 46.551118363652904, 95.59026114379452 25.628988245911323, 115.61334677059057 1.1267810306094574 M59.74367818229271 66.4228796517102 C76.96298029905547 44.63484789505546, 94.90282119960665 23.61435162999205, 116.0448097476721 0.2761477334938931 M66.63739077254982 65.58258041114067 C80.26447132747586 48.34291519354677, 93.07396776576095 34.25594191990526, 123.35932671929976 -1.9158583695252958 M64.91357172906251 65.11353223517989 C84.6174737652777 43.775036210351686, 105.45149881167038 20.082446640710273, 121.73125526587745 -0.5529865177532258 M71.62080534461225 64.12674287638494 C87.06957497360587 43.62653611503754, 105.3908160197737 22.70801096898846, 127.3224547313036 -1.624236492659925 M69.54262154835547 66.11671376532742 C84.36493385602446 50.11731884711165, 99.93641895418199 32.740429491833005, 126.09353186129346 1.0399052479900135 M74.06122041295036 64.16176308318379 C94.02005407777347 45.99152451147302, 108.46968087849993 26.342561571285508, 131.9225148802081 -1.3615322648649766 M74.71137831534013 65.93386933951976 C91.37647108084442 46.34041707070455, 109.7964659479251 26.846427400615255, 132.81765895908865 0.13829937809056503 M79.19168393520812 64.90580042635774 C98.31677696364994 43.68621172655757, 119.28554381114154 20.084909473353925, 137.30661762365727 -1.1986487913199397 M80.26287533922294 66.38606362601494 C96.59865660002598 46.931942675114016, 112.47611860826834 29.055909844573, 137.22713861846952 0.2702917908064393 M87.22104248499153 64.83161347983628 C110.26840771047516 37.61797359809373, 132.6091780121971 12.645163280046745, 144.8476720352571 -0.20188999809529662 M85.92610079517243 64.70130422217994 C96.97923062193931 53.1293308760759, 108.61090414983886 38.14603469850001, 143.40642776460456 -0.5040786664953458 M92.3354690199446 67.45423663843994 C102.18420039066963 50.891457477215816, 117.18647844504663 36.8771981422384, 148.14591357265155 1.354716009629442 M91.94252549239509 65.6772182962728 C103.57597436240117 51.33196657540881, 114.84973433991452 38.60702783030615, 148.82746595670025 0.5698464244431989 M96.19693511367332 67.04330347609815 C111.46726263264381 46.89480790556503, 127.19539673290797 27.02589462311093, 154.5273763094467 -0.29825969421624166 M96.18957510605942 65.76837594566044 C113.21084027654373 49.41876531264599, 127.39164571545005 30.40291077590941, 153.47314761992516 -0.9713315890109442 M102.9447387238217 66.41072338763149 C116.87073835334378 47.89346720153314, 130.46524286187656 35.19725951989976, 160.04542070328648 1.3620297851881844 M100.80715794537193 65.24896683860095 C120.11508310508846 44.60372470215938, 137.759821927813 22.874358811991492, 158.4638498134857 -0.6463917885997432 M108.69397642399574 66.62300494696939 C124.42192552993042 46.85250774568491, 141.59532848962132 28.077877946674803, 162.97920582777692 0.8630305217721883 M107.3211371855011 66.30012357246125 C127.72743898467223 41.4804109661432, 147.31323704713714 17.962440820489157, 165.18090446255042 -0.94217032695623 M112.53707117183943 64.78893254893242 C131.9665566892395 43.78573120438392, 148.12407482307825 24.632546009963455, 170.835217140562 -1.4755355896436981 M113.26985863565345 65.17259831549941 C134.17660806803696 40.44328622584041, 155.44260237653904 15.809199911328378, 169.8931261263258 0.8491162141776272 M118.04224454095879 63.77188976745002 C138.01578115728668 41.53002074237878, 161.49338488279784 18.4354762980766, 173.84573871524776 -1.8293474751299925 M117.32762297099748 66.27408616508238 C130.78483851239497 51.43951359907213, 143.3719875300761 36.82065854733774, 174.88028422998036 0.7171941821688108 M124.25504448899777 65.97753599734273 C144.53672686203225 40.98168557968703, 163.71031400724783 18.859335802361045, 179.97038100947816 0.9181917601337943 M123.93121350073964 66.33190178946819 C135.04946909127378 51.56061524560919, 146.10010855192263 39.04188983349904, 179.0596308327206 0.09640949527531006 M127.19681758956244 67.06612981254001 C145.13127680010072 46.56893074183181, 162.22780922994053 28.23651564005216, 184.39455309685925 -1.1117218099228126 M128.40336840004852 64.48030278602381 C145.58703719998937 45.331660262773894, 162.3961916981313 26.153245527561708, 185.10937285971502 -0.046948999135850045 M134.86623680029675 65.7402056078624 C151.121225961506 46.648541368631854, 163.3164020101307 31.0765620315562, 192.530990435035 0.9943837095206618 M133.57930847813054 66.42316632300728 C154.97077258903346 42.28373070167694, 173.76635846848222 19.090128691911218, 190.09519987017012 0.9480271171933055 M140.73777369480675 65.45689695723938 C155.64342490915112 47.52533127707776, 168.03046051385326 34.03831822769503, 197.51822709761137 -1.3454206076062576 M138.93020941015428 64.52131249778556 C157.06503556130875 45.30029056255111, 173.9169551021803 24.43666932453433, 196.59375628925437 -0.4758108083701984 M142.76322623073636 64.21561325549146 C157.83716913840033 49.85842328468915, 171.0975418839033 38.02500480567934, 203.2221235422324 -0.42078786648308153 M145.18972950532614 65.95518097861668 C157.07377294025656 50.746226638194884, 169.51647274001004 35.734018533970364, 201.31916917617428 0.06900814243162756 M148.87019098169165 64.27036307654812 C163.54713244812712 51.26566565562768, 176.90786141685655 33.60938278371388, 205.7343388425041 1.4832280068196724 M149.4774819388147 64.81215436286762 C164.89355581471926 48.2292496260693, 178.26204936322503 32.42100298291584, 206.24652045609838 -0.9981021830342343 M155.9635909053166 65.91743081522989 C175.58977183915076 39.861859119930614, 197.06723326747897 15.392727308723387, 212.37385845607042 1.873848907122536 M153.92556251982643 66.2492348187964 C171.58395997654844 47.00202939038964, 189.23246021631383 27.679406873576376, 211.23837468823314 0.936891633490248 M158.7680885462267 65.96240962568902 C176.48113426322016 47.06865395778307, 193.78448292376976 25.664776925448443, 219.18546645653743 -0.23710409164500845 M160.1459628945393 65.33507702399277 C170.2947512156266 53.764591091165045, 182.07552777257774 40.13259295026681, 217.16825129774708 -1.2300340606279434 M164.10990894903745 63.7343301620777 C183.2600951446463 45.483619832657666, 202.03873641196077 24.606755975801356, 221.9412733015491 1.4544659053375284 M165.13739345913137 65.43911690604642 C184.45382570309016 42.93903345345791, 205.49914076421445 18.659042822904524, 222.5471523438467 -0.15828334713081915 M169.19866257139284 67.09978931921651 C186.19752292863367 43.9763930835587, 204.73514313065255 25.294446151514535, 229.63918806471142 -1.7427450280003285 M171.1921062728091 66.62070038321545 C189.48439770860367 44.657280910194295, 207.31423632915408 23.734061254042118, 228.6470347517005 0.02468262134864574 M174.46975848689894 66.9299831710349 C193.38997108395182 47.764868530370144, 207.80256012097283 26.683549300857536, 231.5044462036684 0.27223500316191007 M176.36330826074104 66.47111630286679 C188.96415672514092 51.166741803496514, 202.86714611178752 35.79243062983042, 234.12733808051496 -0.11397773693155955 M182.58593215319965 66.88838361235338 C196.47584537464758 46.70890385376461, 212.77961580906785 28.40637446321879, 237.83202276303552 -1.1403133470235076 M181.0916889821336 66.27627308325845 C194.4709833081802 51.5324940886936, 208.0790242997187 35.3691768957175, 237.50239772646808 -0.4704534943816867 M187.93571764390106 65.14306171710146 C199.9543208686304 47.34020351593204, 215.2370715672434 30.13382766633822, 242.2684552874283 0.6533280755956525 M187.32889286215539 65.10402207175744 C202.61530444814468 47.62003082220186, 217.57504425733973 29.925701210877108, 243.04826783573787 -1.0151524734120017 M191.63497541664705 64.15436438009962 C208.96544350537152 45.81628328964565, 228.24946975430208 23.079790761693914, 248.09366673449074 1.5744436658399223 M191.16404696001277 65.96683418662175 C208.23601987001305 45.90931075806212, 225.04414735208547 26.520584991831022, 248.70954421753083 0.5964274942355274 M199.02536454504374 64.38723767527739 C213.77658199717834 43.88108346036489, 231.13935050147484 25.274051820108845, 253.06337867782884 1.29891699763877 M197.94723320087436 65.9091232752184 C214.0500495555562 46.06814003891222, 231.39506842506069 27.800335372638465, 254.56677754701548 -0.13426849407213126 M202.6758704867351 66.09890349745524 C223.42706073681182 43.57352659961404, 244.65470173931564 21.695769485993075, 260.4106390750866 1.044907465812713 M202.91601614394665 66.16992275580537 C219.50842702435077 47.939670328987084, 236.32589326608115 28.16613666940401, 259.4630011333983 -0.38617577007696013 M207.8812773153271 67.05118292056271 C224.36605982894088 45.80314596739359, 242.6471137218242 27.06568813587605, 264.34429449987 1.2851736442912909 M208.3189152143981 66.2702089757497 C228.65489443534307 41.02071450532874, 250.89611790926435 16.43141940299529, 264.12720315184777 0.06871326358808005 M211.66369548846376 64.29817283942025 C227.35002667611053 46.200185996002226, 244.5020077316916 31.121144943092204, 269.0505179098231 -0.4652500721050785 M212.0419324714352 66.17557785330932 C230.7171150069314 45.99622360342566, 248.00047103826978 26.799483967942514, 269.80085441157047 1.0280257751809074 M220.2710340797511 63.898569327957375 C236.18280844504346 45.13465586524164, 252.33445014370457 27.71976351323044, 274.1912808785518 0.06326989055312993 M218.7320248402265 66.38356823585127 C236.37419785791846 44.26518759358757, 253.01161143901732 25.040867956816122, 275.3613805877348 -0.053668137931452975 M224.17852854683306 66.70334428099463 C236.4271983305406 50.96227007386734, 250.98723449461946 34.90614112407728, 281.9058813637002 -0.31735707291352355 M224.42363187997844 66.08633854163358 C241.51705621872404 46.022091139224266, 258.59224198718823 26.281842033518274, 279.9486899895473 0.09782119250905907 M227.58721296331566 66.06806877246144 C243.05955511787275 52.364971493949035, 253.80289106039598 37.80922505671697, 286.3094159388742 1.4593776114244008 M229.66214801585954 65.25799011802319 C248.68507806346787 43.763622344085604, 267.67609868320466 21.42647862027809, 286.08864579217646 0.6636263638693833 M235.42544778684297 65.64058969717836 C246.41091122904857 53.01150907141333, 257.02047649956836 38.38753035631895, 292.4943075617179 0.5022583383874064 M234.13045030707636 66.81724388327812 C254.3255443128375 42.97428842291193, 274.0254059446898 20.15346759568601, 292.3195938048288 0.8944995444075232 M238.84739209102094 65.07335312907489 C259.82159228520607 42.18104630129112, 281.5475834304796 16.609601584125038, 298.02877780583725 1.6746686819050183 M239.77237067879736 64.71476368476542 C250.833471909363 52.46318868220047, 262.9841838757699 38.432142606967986, 296.3158347026728 0.19813583149050373 M246.23453133349352 65.81108096297149 C264.00424962236144 44.82917503045594, 282.94820033526344 21.868560072185005, 303.9583746288763 1.3822680367977114 M245.419223690229 66.09583294074301 C264.78593510761175 42.81412985513312, 284.67231506460064 20.756009648792308, 301.51415179491505 0.30184989337629986 M248.69414958786678 64.80309427279768 C267.10740959318963 45.976023597149265, 287.285359294207 23.39927855611667, 308.30444460444096 1.2853149769950107 M249.9132787665398 65.38767799857793 C271.0135028271825 43.21219679525071, 288.8624563993447 22.072197959585168, 308.2372832567239 -0.6601006725680634 M255.06085731178467 64.29098995337397 C270.4521167435976 49.90461231726665, 286.4826065505575 30.825270113389294, 313.06566069017526 2.0863438973173913 M254.73428796693628 66.46214477652818 C273.93029501270155 45.94145289654529, 292.93154935323855 23.534786901997094, 312.32044989730593 0.016161301915389004 M261.3950635788533 65.52096407862987 C282.7525267230546 43.36903485517049, 302.6619854356947 15.923722810876143, 317.71649445968524 1.2424883716943782 M261.122958216587 64.72302212196078 C274.41767464805883 50.6741279890622, 287.796267775117 36.50103397351769, 318.23482739182964 -0.308544085806318 M265.98450384671645 66.53148854338585 C286.8228352001357 39.37778159321304, 307.89121977734357 16.625409830498427, 322.20874387061485 -1.2468422050535537 M266.70747907469826 65.26871845313369 C288.1794010290772 42.34536180515814, 307.22791666941333 18.18953151661276, 323.7140740495015 0.5462228325247906 M270.1866531599899 64.62034400179418 C290.69407270035106 44.91720959991045, 308.4712047922209 20.775217763753552, 328.47000549657014 -1.1276392589968793 M271.9709359374483 65.73429469763668 C286.05427658048615 49.41138285979823, 300.55776121314756 31.711708093076325, 328.87780304549005 -0.3321553457242601 M276.7105490632889 66.3587486080071 C292.9065921645072 46.70666267272801, 309.1729386225474 24.71038672739276, 334.09308423721404 1.4058007651304365 M276.158132951015 66.68059303305951 C290.8239804125624 49.09521150745029, 304.3344976158933 32.80697897969002, 333.54599213102074 0.722742708150065 M279.8986145142576 65.60548675684512 C292.0843089933046 52.52059077837598, 304.93390143503245 40.14138807981986, 333.17840652120015 8.17790934237172 M281.1824159246048 65.98336562766016 C297.35366586539755 47.5385295000519, 312.06869167960673 30.374659382712693, 331.70639683630964 8.798409992628592 M286.56907108650194 65.97394202223771 C302.8281058141322 50.24322933883349, 315.7799541582717 31.316825406337422, 334.4885515670868 11.989459645542581 M288.09308553338633 65.67530757880562 C297.77616299781084 53.555756202351795, 307.7562236133877 41.732629298078635, 333.2940817314776 13.736024953964431 M291.0174667376659 66.61977379900544 C309.8544917239198 47.29836075310368, 326.03523471003854 27.83708877508149, 333.23312983251816 18.70704856946358 M291.701925086566 66.10873355475395 C305.14709806205104 53.603016329074194, 315.2566618366683 39.69434532371855, 331.6012988757313 20.594933510415643 M296.5151480413556 63.953240661077714 C309.04691989789 52.628042911746846, 319.8125807739648 43.01542469340749, 331.1914913621097 25.956581768286895 M297.70667275931237 66.04290115287206 C306.4598664210411 56.30055056201701, 313.7370530477065 47.514900305552324, 333.02519616524864 26.721134089571905 M302.3107879552149 65.42687700327511 C312.66982162393094 52.79108600082833, 324.2987328615887 42.390858238617504, 330.9945487004768 33.13740239616479 M303.3175493608319 66.80668754141803 C311.45574878246396 56.71221040836597, 319.10209544830343 47.84101430538021, 332.9746402462076 32.13640636902298 M309.12885805284986 67.2478163995271 C314.1255563575782 58.32885438629081, 323.3196196801316 47.178847824893296, 330.4065998052636 39.43641984791782 M308.3807305662931 66.38591281775882 C314.5900578944814 58.04529176177742, 322.54966146223916 50.84539445097236, 331.7770394278148 37.927440017026925 M314.1711562919045 64.16546824465418 C318.1892580461123 59.58963794876521, 323.5585712418703 53.3030018317647, 331.1677412500761 42.2951426974754 M314.00487468490246 65.58601665015244 C320.50429744172686 58.67752825741004, 326.38925823887337 52.14872253236062, 333.1457568852387 43.087867630950655 M320.6152792459848 67.18384111258582 C322.2178451870896 60.42147853806068, 327.0855815519419 55.674285845426795, 333.99539599255826 51.19735533965809 M319.68459489182857 66.11938163596587 C323.8122082891286 61.55205527138112, 325.71667680113336 57.545713958767955, 332.80663842768575 50.68094137905223 M324.48728225548524 65.58046714806726 C327.31898508926076 64.23233926397242, 327.74361715911664 62.008020901120005, 331.72271161739417 57.63002008128326 M324.0737845296111 66.43174147525599 C326.04594579801744 63.75675698307954, 327.981438939295 62.39263001822783, 332.64593109179924 56.75726908746522" style="stroke: rgb(231, 76, 60); stroke-width: 0.5; fill: none;"></path><path d="M0.9785646417930836 -0.4335240435633538 C120.60905823254959 -1.1378226801453946, 241.55749190473554 -0.4618359226792995, 330.2715109297022 0.5831756648143926 M-0.6069908821831334 -0.013645724529139243 C102.10899333367611 2.4572791026166434, 204.91836903360183 2.04560049666166, 330.7229170835823 0.39705460048654084 M330.85360715538263 0.43193497508764267 C332.54249858479614 25.99246215858584, 329.9277150593292 49.11905226933013, 330.4631140008569 63.675154112279415 M330.93231816217303 -0.1090562455356121 C330.7152802348054 25.01771727922751, 331.0191186070359 50.81513365677384, 331.2907326929271 65.65703903511167 M329.70380603629684 63.69221042151683 C252.30449604715855 63.502441787248024, 173.82857046733517 62.426276270905205, -0.8049064579936384 63.90086635158309 M330.64731297701707 64.15894514203306 C225.23845677869963 64.32869627495037, 121.81100070276428 63.36787813874019, 0.21609376210073317 65.05042448324116 M0.6556172147393227 64.03685393184423 C1.0820716921180429 49.31703458660195, 1.3688842359870614 34.28778988735576, 1.7042872682213783 -0.3492756858468056 M0.5287611000239849 64.56534050777555 C-0.15538665505227978 45.573927651891424, -0.45115002842721874 24.991683039415506, 0.346182893961668 0.5944744236767292" style="stroke: transparent; stroke-width: 1; fill: none;"></path></g><g transform="translate(69.2890625 10) rotate(0 165.16796875 32.369140625)"><path d="M0 0 C0 0, 0 0, 0 0 M0 0 C0 0, 0 0, 0 0 M-1.0352582551212857 6.2289053276675865 C1.820393609907977 4.230508543519222, 3.3430101071300835 1.9560706094862415, 4.44468761342997 0.8551423173246199 M-0.2771415434451649 6.080694645692699 C1.3701239806758991 4.634657344349458, 2.4019079585551717 3.3423513984010853, 4.690587614061779 0.29407281538818414 M1.5798664399515499 13.1131014947291 C3.9102352909643954 8.241993181490088, 4.594953234100275 8.03416622341469, 11.679388304007185 1.051433628340042 M-0.42372616742741 11.294350704967558 C3.6987695451874423 9.142414749524708, 5.470650002512437 5.462711875779811, 10.511008880984914 0.6083049203350903 M1.250791718200757 17.127346149553233 C2.6624768918172883 12.851529768906055, 8.142628268764655 8.009837246489196, 17.52577446354874 1.697095297921913 M-0.15402708114592834 19.11908288570183 C3.2640201209062023 13.480013884695957, 7.238867918471288 10.07411195394423, 15.873929816767056 -0.49584950069664213 M1.6359337123296473 22.11658505135691 C6.111942676817018 17.67177714830335, 11.601891533241071 15.05525617010952, 20.70160212954309 0.8336169695645097 M-0.5050857772865083 24.964801789908766 C7.858604062860625 14.082001294901595, 15.59026958996246 5.026934210790099, 20.723320128673578 -0.8168470026761767 M-1.7715418552468165 31.043600855160705 C9.784455735078549 19.89747765859319, 16.81101360333024 11.357263788254702, 25.264743874457093 0.38814015258222234 M-0.15980558371642672 31.165163898606053 C6.844326709344815 21.30051820394042, 14.374567765550514 14.19798596404155, 27.091192884978266 0.908327020147139 M0.2295900600868741 38.862424215116846 C7.67044199732101 27.32175733164862, 16.058323795101185 19.49005012173031, 31.986546271896756 -0.7290765790954943 M-0.3069761042576751 36.27710513938342 C6.913458542777199 28.69576927923018, 13.318134669099953 22.292614312018472, 31.92528626084963 0.18893016514025973 M1.1921170029462331 42.80052328537755 C7.910696998998468 33.90570973764776, 14.53969727267027 23.33235970496374, 37.615682279506075 -0.5654988306480924 M1.1263318072677606 43.28334268983059 C9.973581480530765 31.443814705998083, 20.49318483149647 18.876580348412915, 37.68582106549417 1.1038396005612334 M1.3022119309752398 48.37293246076338 C10.8162587424425 35.449597791622466, 27.423891381613192 19.242656574279074, 44.37662347089105 -0.41399302814612327 M-0.6184110399336404 47.981503718205616 C12.880148602138828 33.94087728294017, 28.01710920868255 16.620061577932518, 43.46897297408037 0.3888754237770087 M0.22184641777990777 55.84928531520377 C13.818433074071919 39.43876143085306, 27.839197797507328 24.216213329681388, 46.97116780369568 0.9748502232309626 M-0.6637789706933646 53.82615832187544 C11.167713621874954 40.900744985445044, 21.650495592735943 28.24755716098906, 47.63340029581475 -0.40052269695436493 M0.09031842100422693 62.04149124351929 C17.32562785477428 40.4822135309892, 32.2864559870563 23.623948971188888, 54.07691185152596 1.1050394974126228 M0.13013632419507815 60.09149616909812 C13.461146902200975 45.61521529015398, 25.632339621852083 30.701740016121363, 52.9237162058658 -0.8019721642659299 M-0.32121645675528043 65.2613492394166 C15.963383935013928 49.57314264965921, 30.45809914583278 34.31790333874936, 59.34877857202591 -0.47714081078060033 M0.9452570488907099 65.20394027701784 C13.07494681968293 50.863251396908964, 28.214735869452785 35.84094964124666, 59.097016513440025 0.7165291901003563 M8.672077945078911 67.33467663615686 C27.048209322372056 44.72282626554053, 45.67430132474837 22.496715301646937, 62.917489538801505 -0.47080712741925623 M6.912342215533556 65.13127575233322 C23.528183147690683 44.48167056660398, 41.30501759658612 23.35250554966514, 64.04635189370592 -1.156073536488556 M10.07783291020776 64.67195280989722 C26.597346921323506 48.62940680309849, 42.95084975594893 27.923767020780055, 70.39109270949676 1.967199942317201 M11.145102209387076 64.82829349463896 C24.480893496120586 51.021859093527056, 37.71409785579021 35.71199157982426, 68.42725565586998 -0.4112156757746206 M15.565832512237264 66.65999883456716 C33.72912008888613 43.76012105198005, 50.569135863612004 25.84473301331056, 74.35343465771767 -1.0653610276417567 M17.704556455619766 65.003469851302 C38.792574302298064 40.41975611339808, 61.51056390725479 15.242924464716744, 74.78121597510072 0.36661036960913407 M20.533187208811427 65.97791160498721 C41.622838166649274 41.55721435131572, 61.85181947399731 20.172018058019326, 81.36568834110824 -0.42845564247561185 M22.28920701343813 64.80990074058039 C37.573556419283854 49.47836442889925, 51.41886770369017 32.733456407142484, 80.16220366060463 0.16253176792072566 M29.602806073536247 64.30938719508684 C46.607442695227235 41.636920933636574, 70.36886504474258 17.24059081596306, 85.46482533327446 -0.2274503282548892 M27.358510808010667 65.93262500984109 C49.63189791384739 40.318885689905144, 71.13395392667609 15.747296632684048, 85.26014438755021 -0.38138138347287054 M31.62492456405571 66.13039749968658 C46.77082124331253 53.318094929540585, 56.41796419545487 37.28930819950912, 91.16514359186033 -0.02543569015905689 M32.759407398543864 64.75130107734213 C44.012557877048486 51.24426031245191, 57.004199842487495 37.11791829482212, 91.02744646514395 -0.8034394163136227 M36.51951772498534 65.17622317293868 C51.15277550655106 52.55986969830775, 65.89676595944731 36.65501554378448, 94.95673969047189 -1.1309031542586467 M38.19373218121574 65.18223987067327 C56.28887189203208 44.86585572662472, 72.80526979082173 25.573913826988857, 95.8024730685544 -0.7350097332345626 M45.558123100940634 66.45558236899534 C61.49344666304749 42.23151303264466, 80.94390435955671 22.233263963566174, 100.30703658675307 -0.8100683257331198 M43.1250393022043 65.0675335674242 C60.88804719221554 45.21298788641781, 79.62872010205382 24.4930996062144, 99.93607000698799 0.26215983402234855 M49.64566364956558 64.2647594826771 C65.42272645006514 46.28536782731064, 81.48334308017934 27.438525740519587, 107.15925585430992 1.4254523693469778 M48.68542457071602 66.56418433585299 C61.697660948756976 48.80102734383658, 77.85105129094495 32.87739455488406, 106.91503795561326 -1.2167356171759351 M54.162860944466175 64.65463808791345 C69.74286747636981 45.606208438492416, 85.63275081762086 28.24745393226666, 110.93394545078642 1.6063183258021851 M54.142938661919416 64.98613727332658 C67.11940829600908 48.40463788845402, 82.67152486855593 32.67435904252386, 111.9886602236367 -0.2568814185713748 M57.96776294328643 67.21837757952493 C77.55444132626334 45.11453588558605, 98.48714253557691 23.50775709307488, 115.37139292079809 1.7724976977847504 M59.52811488502098 66.96695704810303 C82.06703971441067 40.95665930587839, 104.0478242491638 15.95066579251101, 116.63611595723631 1.2181896074257779 M62.89421621963234 66.80373653144096 C85.19242367320808 42.10885578459023, 105.7252789647235 17.30642145696156, 122.8134483089604 -0.012603860553127788 M64.75744141518922 66.54715125754927 C85.20060103303575 42.02352673904552, 105.97008501602437 20.930587554954506, 122.4733030525901 0.8357258884052214 M68.7533937311479 67.3007493384821 C90.48279065934295 43.315643738033614, 110.09540053363472 15.756083727580851, 128.48534707291736 0.3519855456091179 M70.25988906163062 65.33684706992337 C91.5929733981915 42.160062728900115, 111.73983612808254 16.924934491690557, 127.15966106890454 0.16288584262502326 M74.83226705143913 67.35404957457783 C89.43088488670716 52.83883016423064, 103.20160881689338 35.98213042967832, 133.338123286275 -0.5281630097990586 M76.10038349951371 66.60311458259227 C92.03939275189046 47.39102443953432, 106.75148776591521 29.840663113872594, 132.86558443134817 -0.4512291825478627 M78.89513413815001 66.15054663454866 C93.19784254207207 52.58487766210182, 104.5976836747655 37.10462855065104, 139.0501374066773 0.24479736804285324 M80.60633303804497 65.43264346381402 C98.20164086977934 46.236985849456836, 116.01169498142676 25.858225021243115, 136.89895019912748 0.28710173114457405 M86.68209156488655 65.13174909232407 C106.55724545468445 42.54612296580228, 125.28398980361186 20.73825425129715, 141.52554850773024 1.5733127530643713 M85.49110085239289 64.81906631095558 C106.11812671455063 42.87118396364686, 126.70119482754828 20.295453229200376, 142.82859029741095 0.7035424310693514 M90.91056228929274 65.7814413427246 C110.04069401222897 44.046717516172784, 129.13958545782322 23.05898010575902, 149.89584204707782 0.1521050400859849 M90.48053275176399 65.825635292275 C104.57763925623895 50.40009336968011, 120.09287758143094 33.80349666467961, 149.11081928540509 0.31837633548445865 M96.77376788497459 67.33800695967969 C109.69465915806683 49.818862135675985, 120.21189156633639 38.305216357323225, 152.0183020983261 0.1804953030371763 M96.43642941132676 65.6725455051392 C117.0615754610044 41.237793301420865, 139.03833313612614 17.656547169600394, 154.21290658827843 -0.06617020824312192 M100.9422563095761 64.58210533800991 C121.79202865513638 43.81491844162151, 142.71477380250764 19.410669000137744, 157.477539119119 -0.8499195632615226 M101.9830741402877 65.89961161780627 C116.79427627595032 48.300573051714515, 133.2390885528214 30.917378420324283, 159.2396042652374 -0.20325128185535846 M109.06237413670326 65.54899505164468 C128.57873691730086 41.480759798555454, 150.98457269925905 16.758170879475024, 163.08396218306257 1.5570565151193563 M106.63070511381531 66.45359122764313 C120.50961146173032 51.995449950689704, 133.63464681851852 36.6814903663311, 165.05661924145056 -0.3140780379852828 M110.75779432400007 65.31621049540459 C135.53828989109505 39.35157442489764, 158.52372696340703 13.804551291603985, 167.87530674780078 0.6898954330003448 M111.4020431411161 65.85086150290786 C132.89814313417378 43.73545428226356, 151.90140616394672 21.2994342617368, 168.91714107612438 1.074757941625137 M117.12798844507256 63.71588524321906 C137.96924909594267 39.91057921623959, 157.61851200854804 16.155936563209025, 174.61510688693966 0.34166826431092545 M117.95576389735857 65.26474254096739 C134.3216719873918 46.82338107754737, 150.0498162718263 28.703711181959385, 175.58531419442738 -0.7813919956571169 M123.74975445756466 67.12242868990865 C143.79901032290408 44.57067193737154, 160.85478156421397 24.238202216033038, 180.79422305812318 0.5977219038715873 M123.21302569174917 66.68817401007976 C142.1618932014005 44.64760807258952, 160.979061005128 20.992163137712126, 179.96276565556605 -0.6825569315740552 M128.17568893508246 66.1648494094028 C146.40756898819836 44.26964664149962, 169.2282688353669 20.712935054586893, 184.1293143349574 -0.4519975743881446 M128.48094169945648 65.02103850761195 C150.1260129258382 40.66900615395566, 172.00357645820847 14.38581702734892, 186.21207738470892 0.6031769812413472 M132.9357148352699 65.51443179652208 C149.9840552839059 47.29111112269484, 165.37223035463987 28.251043982966863, 189.56436617508626 -0.9252682756477952 M134.07910772968694 66.23283820182198 C155.34912287428412 40.86185366676111, 176.91517105846043 15.453212188775687, 190.38331394106245 0.5023431610470652 M139.03555373173302 65.59705942519592 C154.49454840994773 48.17118081202746, 172.64265022915862 28.996307177728838, 194.76916265211577 -1.4352691259778396 M138.4630744576091 65.45001819007682 C153.52417365179926 48.050214407765665, 168.41103598344614 31.757978419929195, 195.53749474979514 0.7234179552101239 M144.95825358211576 64.38089169024488 C156.2495739595287 50.3590564781095, 168.14141912308796 38.31058984867556, 201.14081422368992 0.6970967694422114 M144.8508751924294 65.1186431406345 C159.7812849319237 47.76388405016906, 176.51737374079147 26.63014234332772, 200.3731218701135 -0.5805027180114877 M148.16266096002417 67.08868716559842 C171.03456657720122 38.56714329602244, 195.37961403497266 14.54886988864785, 207.30222996341473 1.1555254845418403 M150.3464981093164 65.091720650862 C167.69226945338718 44.53677906610848, 186.64567794118418 23.171556443581274, 206.34965222718603 -0.724380011250787 M156.08494882310225 63.98548024607706 C171.64204826574414 50.5255861731387, 184.60364978398042 30.426200043095832, 212.1036453289342 -1.584011085858421 M154.56641401747657 64.79187788901734 C175.56537030154132 41.20630832424732, 198.847216087138 15.338683908859416, 212.31402538021922 -0.3285555062497423 M158.98102971596546 64.84561408583306 C173.64081668643493 47.10333401426335, 192.7676021457308 29.567514741446907, 216.12109439385432 -0.5409418678290905 M160.1069895630879 66.05339453269028 C175.060575658803 47.502783804582684, 192.48974390140307 29.76948216985086, 217.6241357543816 -1.2314278556413711 M164.20837868322934 64.96686933901861 C176.53881686617487 50.984074847659166, 187.77042308156163 40.082304655532, 220.65793761581912 1.5575800334503214 M166.4513101423284 65.5113315094705 C176.595788075172 50.00804543394777, 189.72947214076723 36.5538104746852, 222.77536040887966 -0.3267761411676844 M170.50785618253786 67.1845929004543 C191.88134503411698 41.635369591754866, 214.3536072979241 17.238653709021854, 229.24333406843456 -2.0109993080906605 M169.87600281440456 66.99065973761608 C186.37121780917028 48.83744756755384, 200.96792510911146 30.22971113032129, 228.52403126888188 0.523563484538343 M176.84612128749708 64.33873084406957 C188.30978358983404 48.84240682839616, 203.5468554253768 33.18283006764605, 234.63376920934468 -0.17695799763154696 M175.91864950448493 66.34829306449399 C191.0701450322559 46.3325797589566, 207.5913393112673 28.732420936149076, 232.5139628935948 0.6523744397347002 M181.41715945575092 65.06150506468492 C201.95022711603596 44.87786680468297, 219.81441626477135 22.79476208677295, 239.65546808316492 -1.6112653810200896 M182.00431477177594 65.6357649083622 C202.66921492659807 41.02234121087477, 224.99308855071234 17.201839396928968, 237.74386567919635 -0.5709073479888644 M187.14075476090545 67.48973663622988 C205.697525456996 44.235730795665134, 228.86550560283834 18.559793707828014, 243.48621823451083 -0.7114533041040545 M186.56901804144616 65.18655161658776 C203.59985545622126 45.885077391147384, 222.24963135565184 25.066029339087706, 244.47416877186458 0.6489352989573831 M192.66401766060457 65.05252245352492 C207.74121519775744 50.14887945590122, 221.17340309137293 33.718725019543385, 247.93719262102638 0.4125126279370903 M191.68626137270198 65.77874910742864 C211.24887864847145 45.497283582636605, 227.8832166887391 24.821088667577072, 248.13384298080598 0.9220295488314747 M197.8598572284544 64.18355859049956 C209.46228156599864 52.316863768804666, 224.91593656159324 37.09565473250509, 254.2953628163176 -1.594734010967187 M198.190501690712 64.72239622825185 C215.54005533500927 44.535738076087206, 234.31782810105904 24.444383341955273, 253.78781398118906 0.5154454990003785 M202.82850892209888 66.10881694197428 C223.31385048706377 41.00031190541219, 248.31185567627443 14.277027098166208, 258.3250267780285 -1.546283825996369 M202.30367855468273 66.02215139731538 C220.37939867674498 45.06727775314806, 238.86878565996 23.59968289916383, 258.7634900822203 -0.48412718227788787 M209.396006815144 64.55886858187863 C225.50090505902756 47.313867193579846, 240.7562300019164 30.989209938287672, 263.766281079765 -0.000628243220916147 M208.7586863897826 66.46461596198627 C220.90596947385393 50.017517763014965, 234.29158834866152 35.417080157554295, 265.7742344590682 -0.08305589763628518 M212.11571136523378 67.55656040503304 C228.72065353011382 47.69924555563922, 244.75534252317902 30.46867187995302, 269.33654867917124 -1.4739828678204105 M213.42590225521815 65.78101084052246 C229.05799167318597 46.752913553234535, 243.89234797656067 28.99041318744745, 269.54589292093937 -0.2180884788168953 M219.76678164597425 67.12933848536704 C242.31248405189706 39.60441755065495, 262.8706175754476 16.75359124157565, 274.2290511498531 -0.7279641258653271 M218.4366580761579 64.73449988029097 C231.14334971291436 51.369948765306326, 244.15004230016865 37.3734933217481, 275.94026614300213 -0.6690298284526932 M222.35570311500933 65.09692471770117 C235.89798023856378 48.73874997277124, 248.64517221006702 34.75974429973759, 281.1143364494546 -0.9819126225351056 M222.80976841180828 65.28286649954984 C243.71240133448697 42.59827175697121, 264.3799275512635 17.00276153035999, 280.58163743446306 1.1039347217143813 M228.61475984594506 66.78364017596486 C241.76877985168258 50.59345567428466, 256.7707733116937 33.83002160549715, 285.63875115158174 -0.20056978390030622 M229.57500268733781 64.66583704566601 C251.61081538799294 41.49531960000901, 273.00727780967486 17.362845924748612, 285.9802449704907 0.047562769051268106 M233.00356229642549 66.80608175497865 C245.36582195007134 50.19573390379414, 256.94563082309156 40.23294186216479, 291.42596821387855 -1.3064012151404256 M234.39961296195307 65.56775743689751 C249.22599530493892 48.77408273385764, 262.6044081922614 31.83384626368686, 292.15880956029144 -0.3217685181840295 M241.20751954005658 66.78544552867206 C257.5649731397198 43.619624114706575, 278.5236953232019 21.83451892291987, 295.575459209951 1.5327266576740612 M240.7118061608225 66.20491652061136 C252.86983110414008 51.13028193181231, 265.5714639483945 36.32971094683826, 297.7760068790339 0.1692609573755135 M245.1393670344823 65.13520339186553 C267.2817240544871 44.052019767975196, 284.74418189607417 19.5128090455462, 303.6640220974432 0.6912232293636293 M244.32727184315257 66.48822271506552 C260.11713313345257 47.63530253622132, 275.3574641868481 29.13431797321295, 302.7529952359246 0.5135908639878721 M252.43763885330867 66.7734264184886 C261.79401470127857 52.43507384881005, 274.5872125953202 39.225222990006074, 307.244253449961 0.7980970738578037 M250.57265443411183 66.110527367627 C262.41144849298615 51.21451014969632, 275.77958249303833 37.55904396388567, 307.3968878061319 0.6111037990200714 M257.4681954541797 64.91046150336176 C270.34505092405306 45.29750230903732, 288.49402292296406 26.39668273753938, 310.8460762251484 0.5246325859770593 M254.91208099290674 66.70930139655381 C270.67299298612426 48.52199410137048, 285.5908243873754 31.60092087213294, 313.02728039886233 -0.5686980692699137 M262.82269591070144 66.76125472041454 C285.7877018003237 41.31062545270436, 304.80533240530644 12.088089720018331, 317.4752119966115 -1.7032866603490788 M262.0706334447059 65.95395864921298 C276.9295644554095 49.38049907983948, 291.1626964374369 33.08960773138676, 319.0997236892845 -0.8993696435150582 M266.3201256805177 67.33302796446739 C288.3917809748591 39.99732069713008, 312.51687015033843 15.99823746598517, 323.61470872199425 -1.9175012703001357 M266.6608763487156 65.70853254386245 C281.9848907248006 44.9392540203068, 299.11329970755656 25.62863278625892, 323.8322509866048 1.065153744542613 M269.84920980824427 67.8923118896726 C288.7583755764465 47.75486173208586, 301.6576892957201 29.103264870535533, 328.72341297490266 -0.8952526699465864 M271.6502701011141 66.873709008092 C292.0191478560359 44.77958275982698, 311.0125268711621 20.8886898578292, 329.32885046599176 0.17787969227012468 M277.6502358384964 65.9790746501824 C292.74854162470024 47.936006576374865, 309.6475463450316 28.89128413779494, 332.9253796549997 3.1379126959776045 M276.2679938480792 65.7759552194914 C299.84892437545346 41.39599484777612, 321.15017552475194 17.000486425883004, 332.8938748786709 2.3708545283710123 M282.59687672891823 65.42085064081729 C291.61035593130833 51.93574717557983, 303.3658996999652 41.13212305808409, 333.8522851909389 8.975176302515763 M281.91176839881746 66.55664834631861 C298.0570376716231 46.89656014349022, 317.4733981355368 26.679357770995672, 331.4994547548582 7.497196251326102 M287.0386040531157 66.79977343550675 C299.08335756521245 54.99310591368432, 307.1784833509513 40.49843575017216, 332.7979588012787 13.3860613224835 M286.6152694284974 66.01410848594062 C305.4505318933651 45.04162405766776, 322.92481785595106 24.943417411310826, 333.5650296646746 12.663708307388504 M293.8022157687328 65.24025242907136 C299.6011283348123 54.244070989385364, 309.63817258992776 44.96237318272846, 330.5032609436632 21.205914650701374 M291.67465524632553 65.76627530661553 C301.3285625585481 56.476345764607814, 309.70448800393524 44.66838449871352, 332.36722666732675 20.695361614816278 M299.6903084493756 64.12129619544051 C308.5938915559965 55.49598458185344, 318.0807388245491 43.7216816695437, 331.2787916627078 28.029391941321563 M298.7720390274703 66.3380314057102 C306.26267011914337 54.65666545222214, 316.1368165309366 45.99323980325949, 331.78756865899254 27.203779601199102 M302.48280505268804 64.86418912943478 C310.38640149984656 56.44160625557592, 322.9623509284276 44.61468196023412, 333.28671350302807 30.22458634849633 M302.6020165811383 65.32387895148273 C310.04216783432736 57.36169212190735, 315.6803509118663 49.630269245377335, 332.21929728584996 32.97636694412674 M310.43542715227613 64.64481480498364 C316.31159736626455 56.64558423077781, 323.1395355298065 51.86284812936525, 330.822574422268 38.94715726704624 M307.99513858249793 65.47526304130008 C313.41728765449216 59.295088428306464, 318.9683815799332 53.109526677834225, 332.4741958571056 38.36543831185725 M313.2812227057839 66.1813326169076 C319.1584889291157 58.544540113678885, 326.211250153447 52.2904052242176, 331.15772099403364 42.60736327090069 M314.54443834075573 66.86324834342027 C318.8403268409521 59.81683114968988, 324.62577875496027 54.52868043248954, 332.2500025479279 44.13025130175754 M319.72903828681734 67.44650113913612 C322.4421670400588 61.38119440617741, 327.8563019516592 53.286068180605916, 333.5408261759689 48.657738754880256 M319.7289040310803 64.96584245521025 C324.7732692592114 59.16014310501879, 330.37592147675446 54.1511836799396, 332.7569381675234 49.599683082085676 M324.3966204436567 66.84414836907555 C326.2008231918331 63.187052468976276, 330.5668463285985 60.76909771635507, 333.29085717861244 57.584405647994686 M323.84159620945115 66.46933903613855 C327.44314274423624 62.70985241218876, 329.2671982762117 60.1497517214845, 331.57774728824086 57.25688752237122" style="stroke: rgb(241, 196, 15); stroke-width: 0.5; fill: none;"></path><path d="M-1.2590461191638267 1.2146674054218443 C100.8284978500119 2.8134049403718375, 200.83433290378787 0.9792627945419389, 330.77750908441175 0.26949745068895314 M0.5047252983837512 -0.3100205741937096 C70.68957658683661 1.102987464549707, 140.18741356394733 0.5434097092272482, 330.17796902324176 -0.5670384980128779 M328.6716508641839 -0.7801974788308144 C329.67732224924157 24.827075132924076, 331.200569729634 49.65177785942506, 329.03900072723627 64.30332317203283 M330.97262949869037 -0.24053121730685234 C329.411118092212 20.19260727904184, 329.96259135213785 40.22851753442374, 330.1520736925304 65.44843088462949 M330.6135291775942 63.74054498759283 C244.1402350056744 64.7606829484761, 156.3056321421387 64.62137525439272, -1.0706049566999345 65.5009908374647 M330.76508270120934 64.61082726936844 C202.1824115446338 63.21600486973281, 72.901891737395 63.06137617298877, 0.6260468660428905 64.28320383136754 M1.4527258649468422 65.26850809901953 C-1.2335076316691993 38.99741820049385, -1.2012422069408057 16.50577013546426, 0.08150456100702286 -1.6933356299996376 M0.5380360595881939 64.27691363170743 C-0.8280366975079232 42.290627901615515, -0.8517511206875497 18.926889321181804, 0.2497297041118145 0.7025471813976765" style="stroke: transparent; stroke-width: 1; fill: none;"></path></g><g transform="translate(10 344.1171875) rotate(0 103.65234375 32.109375)"><path d="M0 0 C0 0, 0 0, 0 0 M0 0 C0 0, 0 0, 0 0 M-0.5529835618706295 6.110623230089538 C0.018972509693511608 5.930426511910494, 1.2865405539988224 3.785849393449734, 5.194357135477013 0.9526410501298718 M-0.39512591880279274 6.056911757637851 C1.8593676428913246 4.471875278249135, 3.4348401949416383 1.4822395499784382, 4.648495973231739 0.48847830852840474 M0.905490274084698 10.701198935925543 C1.6166961803502016 7.590717250157045, 5.86434856730834 5.336124346824909, 11.565326698076856 -0.816346234540665 M0.7031424918304789 12.771401742517531 C3.4160126516901954 8.194729176571414, 6.423464571023169 4.406437276149882, 10.191060714376103 -0.4096454535529255 M-0.8734556688508253 17.58172578262227 C4.266247432308114 13.783448839376172, 8.933026451654198 6.993280078645622, 16.9497443730975 0.14859912608982828 M0.6653580078342696 17.656713048834973 C3.5827730491330483 13.490470219028737, 8.887851967316953 8.907738665183643, 15.373113270386536 0.5886401652288606 M-0.9480118749477651 24.479141583382248 C8.152480684323907 15.253456984731143, 14.061661239061058 7.267460731946315, 21.626490904295707 -1.8603369468659636 M-0.4814672803320672 25.053268277733682 C8.287654594136702 14.954461975843056, 16.338644362731234 6.013907610427459, 21.378191152864957 0.4623617394059423 M0.4824675554921285 30.331866634775153 C11.834205129161779 18.34815591099015, 21.464107668084726 5.809197373465523, 25.897872681405754 2.148780371436173 M0.8617246049036638 31.448898778993836 C6.930178430127187 22.710459818000643, 13.013810290829733 14.134541940519409, 25.38512702905795 -0.5966041093680321 M1.017156885834364 35.50066987220322 C13.267046860524486 24.122667151778124, 23.079392508649647 7.828279653116699, 30.23006049678365 -0.05392706382430745 M-0.3295492996555289 36.646390089580166 C9.994199482748865 25.53046243687142, 18.949953401837345 12.937683495378245, 31.98252821475903 -0.6847126743511076 M2.0286678794444555 43.94788273106866 C9.308866533444368 33.732933566752806, 16.788343765455192 20.228868026425054, 37.98842652682339 0.1720634234231433 M0.5960092927933687 42.08524649645739 C8.53038071853579 32.87163603355267, 15.500999066369628 24.97693069569304, 35.93554715979968 -0.36786217791023645 M-1.555127287283618 49.75152788744204 C10.948990224696297 36.268784515987406, 23.114354257089722 23.343859663588248, 44.43601656388097 -1.4500013116420263 M0.12230283208183579 48.98081977725856 C10.93151523054924 35.81879170543721, 22.598542963722593 22.061220475334924, 41.55935367997341 -0.84407041330347 M-0.9086828219938425 56.07235219650279 C15.873389409505357 37.24217156870996, 31.07752201011638 17.54918658920979, 47.235077784350395 0.1735264070507334 M-0.7167488659966139 54.916342138725625 C18.92221030611108 32.54672700271392, 38.43427261171629 12.183160799682895, 47.59566272511172 -0.03079810289775864 M1.1927484517077716 61.44150333432148 C9.4456225270414 46.970020293684364, 19.7474237972695 35.59032366592902, 51.44553098058766 1.71901843468088 M0.5393191483895095 61.75560285849164 C17.604301719296842 42.38039377254078, 34.19430546141055 22.485945518295267, 52.58620661100811 -0.7276255399511449 M0.6837053841582517 64.46343399563202 C19.117592734994222 43.14712637008075, 37.38959822592646 21.091145978176215, 60.026498328986776 1.7332474473189556 M2.463107249014733 65.97085248285302 C19.516075722150568 43.95834555256351, 38.956353056494144 23.049596901126037, 57.749262787494075 -0.7035759468305862 M6.710046267713608 66.10357853561383 C25.752397222733464 43.92724781891441, 46.87128394327224 19.268404064178448, 62.83477562190373 -1.154289699855589 M6.6158790016725675 64.5554794685517 C22.535326573498473 47.12183040524933, 40.54650022316491 26.599873936851793, 64.35312607036312 -0.8597921167941323 M10.098653691796315 65.71190087100581 C25.057275051776358 50.04871227020456, 41.48026494814395 31.29056567591754, 67.12636003573253 2.056304669227792 M12.392266019222987 66.67255808388904 C28.552132441877692 46.47753115627259, 44.27114712232917 27.792634300171265, 68.59263640944674 0.683140227791263 M15.636201919771864 63.461669937210175 C33.48502626739947 49.206184584450654, 49.56652310031322 29.301726358166214, 74.55492236282917 0.9476524097485708 M17.674035338468983 65.7186238658298 C33.771393281266825 45.52994259989765, 50.94411615045209 27.467479535712478, 74.96265112053844 0.4225157936675714 M23.91462562803426 67.39184591029746 C44.93902234936788 41.37048970314413, 68.83937181629997 15.518745790756604, 79.67333477958766 -0.02722380222273557 M23.05055815924206 65.99105984200699 C36.134339405874634 50.28171707829255, 49.78202367170695 34.85335183899389, 79.13457265346972 -0.6138136415321895 M27.6735331089395 64.37411314544714 C40.89361802737907 49.74898226513383, 58.00156257653757 33.25473174006349, 86.93214307836399 0.6674228884933484 M28.536223047335714 65.28012946916259 C51.78002396605046 39.64782989823929, 73.19126519930424 12.300157989177904, 85.32982082403407 -1.0301158710660445 M34.30173403888157 66.40055681872974 C48.68933789332527 43.95562082702977, 68.25049835827136 26.476687435658377, 89.18109443555215 -0.06225984203264545 M32.446963702581435 64.78165327492962 C51.98876034207255 44.48625338196591, 69.92085307307869 20.789923547776375, 89.196360582063 0.8498983826990383 M38.8357117102165 64.79598628532473 C53.43749731067723 48.679058148318376, 68.5729019034909 32.70842875394234, 96.6676096435082 0.27259986137875103 M38.77373119077275 64.93433221605007 C57.607629255002415 44.12066102123889, 76.68244910736021 21.356616810101634, 95.18217424335003 -1.179601173494973 M42.46115079933827 64.50561172130266 C57.809831670045384 51.99425812220978, 70.7404717951274 35.72977430524365, 99.53831087862605 0.031274674798076774 M44.05902171174114 65.33242432015696 C62.17516413418436 43.946473396864846, 81.48445024227217 21.172674872641586, 101.41178925772661 0.7061122379849607 M49.51140959860289 66.30736748184296 C66.83900484702649 48.370852581371835, 80.57757379562298 27.15999565868823, 104.83749393326175 -0.34423854659521425 M48.77034883128011 64.56306804399225 C61.10707427984145 51.60369979759666, 73.51967461673497 37.41064522458193, 107.05975044098628 0.19964582388079322 M53.96904778440434 65.09958874301618 C73.96289715280535 43.49335298314786, 88.71899299155959 26.45728235892512, 111.0086559838093 -0.04154212673058311 M54.17677124922115 66.11895891518897 C68.14434706605377 48.95203870395588, 83.1462808907216 32.64319281249205, 111.22714774296053 0.7741638618255635 M60.464298649098644 64.1133348600018 C78.04451695417848 44.95414562849439, 91.56717569892365 25.87940951836041, 116.2369087936342 1.0891953697942185 M59.722365031357775 66.2356728904891 C70.65949958193478 52.32531298214592, 83.27015217674644 39.73132267151211, 115.65902945045235 0.2754206387840199 M66.77659686907978 65.20006600887035 C84.8694788669155 44.833230545629725, 102.46097691659952 23.14090134399025, 120.23080162610194 1.0493678783813891 M63.90275137752147 65.80434299752568 C79.4853541433049 47.793109977373746, 94.20368284711715 29.48049676078393, 122.90122510026475 -0.9391108082791391 M68.83305073670377 67.04396654480126 C84.16992883385811 50.253610678648926, 100.50006465905973 31.80678446142354, 126.0041441576065 2.206060575101496 M69.63856885350575 66.20898269304064 C85.62716305390109 48.390702122748124, 100.49413082514631 30.95453364039421, 126.45716839222922 0.13889004826915397 M75.2099699283646 67.44962164386513 C95.86854837261146 38.8055787573605, 121.91230993981557 12.206883778569932, 132.21841968050393 -1.7409171848660066 M75.1520011591421 65.23916250466706 C87.55836579756351 49.873101651163246, 101.96447144832177 36.109633259897464, 133.50531039213928 -0.23937583482914704 M80.13133773641829 65.55434066124135 C94.57307598401373 50.3981665445571, 110.56380325214884 33.599656083435384, 135.6843128711882 0.5286447745493916 M81.34024936022405 64.92733338914687 C103.67868019045426 38.26522916634667, 124.77253027856231 13.254599823418708, 137.77564729982643 -0.6671504299410316 M85.9703388372588 64.11583377300053 C103.67082295174956 49.71700201781086, 118.1972872047039 30.52543867911338, 144.36018202201532 0.16768080852720857 M86.65205965658305 65.46150337411314 C109.27723828667058 40.039352425330705, 131.19118835732405 14.904559723683597, 142.92319268108415 -0.7447952803244817 M92.24783152324216 63.724535334322084 C107.0586614391776 49.3038377682435, 118.88307711694924 33.19127009116248, 147.85358680937927 -1.5504739068620665 M92.46119561401264 65.0225609163078 C113.9777697345799 40.97726078471713, 135.0948048046847 14.972117604142078, 147.40450523574393 0.8328851416534917 M98.13387547076236 65.09128052127656 C108.76769534719577 52.01197813205119, 117.68925078581651 37.50590173071731, 154.4197605256361 0.9802399835610487 M95.94296593234431 65.6969515433639 C118.65875751168336 39.66748687655566, 142.57321985806513 14.93223952755676, 153.85116102959933 0.11396679273487109 M103.44620397217543 63.259628689043424 C120.1632052130918 46.77969445341894, 135.89860133650018 27.134384561250954, 157.46313784717972 -0.013717344132913922 M101.44769667737157 65.3140012120234 C118.31540759296685 47.18205709354208, 135.419776317791 27.87660283208686, 157.94628126248176 -0.19791729944731173 M107.1517517038753 65.89354001369321 C126.37731513663451 42.80104008192811, 146.7103897492657 23.02075714593122, 164.5358270663662 0.5268384652355138 M107.37725904892588 65.35859294991934 C126.52616387822476 43.293968426592244, 145.5074572389622 20.925461497515144, 163.7980045001848 -0.9062536781510886 M112.36512695821804 63.48969885040539 C130.08222613217237 46.89412163490327, 147.01008697294932 27.94854408948104, 167.83913785958953 -1.2185074122631363 M113.55854161280078 64.80849021379369 C129.81172635802403 43.93230083159321, 149.3775339007626 23.93702000192382, 168.81601444253988 -0.40897181574342767 M116.85013941159764 63.6651903752505 C133.10817716699808 49.850785023825665, 147.36447437828383 33.659540054271, 173.2220535192057 0.26255437855061814 M118.11997806882778 66.04701353127949 C135.738714078851 43.7292489966826, 154.49700436640651 22.659882956306532, 175.08501215534056 -0.8611207554823466 M122.01827235637005 65.36982394340798 C139.14685904607882 46.223285319611506, 152.33707357675894 31.38754105192151, 178.6827587216087 2.1027340137472663 M122.86501948280032 64.70036385911867 C144.255771323903 42.850582521044295, 163.75654392519726 18.437281753279947, 180.2412438384183 -0.2621924697348561 M127.43021046892932 65.1738097309484 C144.64404686818887 45.92453579695567, 159.71434411355455 28.27781783525186, 187.3671117591546 -0.7325341514936667 M128.14866205454996 65.55029922494431 C145.02903266696694 45.48200215121561, 161.57310215424405 27.51020956296329, 184.84597305756668 -0.6187985017589313 M135.13825301264092 64.23479167327397 C152.6636981285255 48.03119884432487, 167.7511992826014 26.398120256933282, 190.07017230823732 -1.157414941101706 M133.59486032087966 65.12616766572111 C149.0087259766478 45.83191766574365, 166.1601775061889 27.5040863289411, 191.26200851261711 -0.03199332392159704 M139.4681367508704 66.81197620578693 C162.7272407221425 38.45127542963466, 183.68805250010155 13.325858104046539, 198.23467366121287 -1.7533489998973266 M138.25335006859248 65.84403596841382 C158.6416035785828 42.202943258191965, 178.7644742944015 17.630122081514962, 197.0271762693631 -0.8599509794808284 M144.8008588600117 66.78026100455781 C162.99903008571798 42.81099298929058, 180.93463476966838 21.495348585396684, 202.45255049447525 -0.48137615181003923 M144.75647124751984 66.14581841065547 C166.83679317550286 39.37044238090303, 188.7396640817583 13.240461801887172, 201.73084752763617 0.19471155919636374 M149.91509013242083 66.59726792476609 C164.53223692365242 49.51644611238813, 176.4524778481135 34.83942768458941, 205.46341110038048 -0.4698120416603615 M150.0365811734553 65.09130969918802 C165.90524084529775 47.23141331419184, 183.42351665656585 27.894700293584634, 206.38741085322982 -0.07774225114803812 M154.48870274449183 67.59101964248228 C168.67616860455595 48.261001102714545, 182.9762611301426 36.164846404377016, 210.68788806835104 2.5375572472905645 M154.20258229623033 66.2708616116445 C165.82774714354795 52.95108424318066, 178.70641820022246 39.65712811242232, 210.34462285900403 2.782636857787324 M160.09724248858066 64.17226301288588 C177.88261470645793 48.07541610822814, 193.51097461898473 26.86616972086032, 209.1942876037714 8.129669810890505 M159.91339443163844 65.64270635476691 C173.51598245638985 50.07129028554242, 188.0007906425901 34.34497230408668, 210.62525752378076 8.478678583412716 M164.71545654108132 66.12214571204737 C183.14929312079397 49.19418384619796, 196.74134141129915 28.42536448958156, 209.4167666149596 13.214059183427807 M165.2544825295111 65.44563320618823 C177.23652407117024 52.69508562996485, 188.6992528962546 38.681121327285325, 210.0202832793156 13.566964311578985 M171.71576569434984 64.80453959514628 C183.59476959245836 50.8251504011745, 195.28770561898568 34.49584328747804, 211.06444727830967 19.587498040973074 M171.11132890564187 66.03631187265049 C183.20541903166784 50.976809301044185, 194.7506397596344 38.091523720898046, 209.37297757544002 20.653470819919235 M176.36979212478022 67.45371733825311 C184.16302457611351 56.86469252738849, 192.9394553195532 44.06184122325635, 208.7441253861776 25.129483238705703 M176.04596100986222 65.80196913178668 C186.76012205625003 53.45596226774321, 198.50017138298293 40.48066815327266, 209.57663522794752 27.212055315175363 M182.84683162472842 63.38667579654731 C189.50818147671242 55.1313021573972, 200.0539120744988 44.62942033411274, 210.46179811495733 34.089912452696254 M181.67042365796564 64.99771219033875 C191.68458442763324 52.991038799278115, 203.92490522288725 40.16337257546361, 210.4510961866696 33.49713207498043 M186.7153813705885 66.29081264609945 C194.55270545505925 58.434305166751884, 200.77926113346382 50.93639686570497, 209.96507722801442 40.05611711834699 M187.52330679978365 65.65920532593978 C194.1834283672814 56.43416949764952, 203.79171824770762 45.982033011364, 209.46015873840923 39.13570538629919 M191.94161215471635 64.43624974208896 C197.44966614713212 58.01050045341883, 201.14273792249207 51.78564825998821, 208.5250119887143 44.46699117106007 M192.4432177511097 65.43999324533169 C198.63912718936817 56.667053607865306, 206.0860104670095 50.46489889098368, 209.8684024199694 45.26649828609632 M197.3907994319314 66.89466262997487 C200.3004348177806 61.97597797904652, 204.67937642299754 56.19467117553938, 208.77472063342015 51.13311805376695 M197.44249159978722 65.52729719725798 C202.3374873927863 60.52383880607176, 207.2382679022818 55.543805541559166, 208.94581454826425 50.70748149311082 M202.3688698091122 65.68909598076614 C204.55844188543244 63.08673512281043, 207.68406047006758 60.06441696794248, 210.53417689101207 57.046168579024716 M203.06652890765542 64.79144176086308 C205.166008301644 63.069843385138995, 207.5733342205757 60.01909371762916, 210.35731040080447 56.62381976736103" style="stroke: rgb(189, 195, 199); stroke-width: 0.5; fill: none;"></path><path d="M-0.2221177868371912 -0.7924363555566343 C60.44188641362805 -2.499727754284759, 118.92141931927739 -0.5665883201960189, 208.7232293035184 0.30507426180739594 M-0.8847929817440998 0.37047129305216997 C54.82874679772405 -0.2890662250529047, 110.38827718190129 0.7231502596147075, 208.04389110061152 -0.3021908818378918 M208.39615359157324 -1.8402936682105064 C206.64940528441804 14.824846518167762, 208.98070721198457 32.56149701948743, 206.02604570239782 62.90053794533014 M207.17331122234464 0.335701297968626 C207.43306043678314 20.87363252422074, 205.86047092014343 41.5520170890959, 206.619971383363 64.28708381578326 M207.8805665585159 63.728683871634956 C132.40761069431636 63.39238489101127, 59.28584574035613 62.58863767011959, 1.4857060712750805 64.36989995691906 M207.36293345814195 65.03919606356641 C163.97982172872582 64.89784148815926, 118.55287747652778 64.8159223964303, -0.4951167206710451 63.97640836297781 M1.9504438862204552 66.0955817475915 C0.9878791565017309 49.72881247760961, 2.101911186607322 33.08247930381913, -0.05584869533777237 0.12762735038995743 M-0.31667495891451836 64.00180823728442 C-0.485960646433523 42.09051647776505, -1.0960333784052638 21.756933916243725, 0.3847230561077595 0.9666413776576519" style="stroke: transparent; stroke-width: 1; fill: none;"></path></g><g transform="translate(298.85546875 345.25390625) rotate(0 101.05078125 32.498046875)"><path d="M0 0 C0 0, 0 0, 0 0 M0 0 C0 0, 0 0, 0 0 M-0.0436563409538816 6.244904102434509 C0.9741499045316075 4.744832644120828, 3.135169777246868 2.0650698155770213, 5.273017242135948 1.1546495836076551 M0.03696660477203634 6.795117238213413 C0.7871947206544779 4.657384493460186, 2.8112430053917032 3.3116969568028427, 4.983739436747975 0.6257057007250602 M0.802117128027569 12.776065612256108 C4.185535662842355 10.179492654244527, 4.618266665759134 4.426832071321601, 11.734017761004102 1.2699523265555266 M0.7410854735504495 12.317072347223341 C3.9019822244678517 7.481085581029642, 7.243099559553588 4.699595533963463, 11.095168857228888 0.19451819314507257 M-1.4708804144105176 19.29183287071126 C5.3720642193578385 13.736285679727505, 11.425906613907827 4.734284999650228, 16.163835435643275 -0.4617207267391512 M0.4178991922596236 18.572226445098096 C3.804027405185169 13.838272885544209, 7.756363266293797 10.840762208747975, 14.818346257790406 -0.5698248625802824 M0.7878687383792613 25.172227492272018 C7.319697908868566 13.88677733959736, 14.646315589272048 6.859714984469814, 21.450010372603202 -0.7520822757691619 M0.5930076504311774 25.032651150315164 C5.581954489559246 18.01614412038785, 10.142406478130424 13.344440927258034, 21.665499488169218 -0.8769847886473414 M-0.029645300419126386 30.132198942590705 C5.14102064167697 21.54108489632549, 9.75010039445451 18.57434393709778, 25.30420922734997 1.4201896445837559 M0.378860821067299 31.131189213831178 C9.57139458481497 20.134086666530465, 19.050335618805928 7.744215880281391, 26.170394501325102 1.0495496982720436 M1.042939232559828 36.04032865706955 C9.70378318776805 26.543721466964598, 22.341374395961942 11.845814329958895, 32.30979029223958 -1.4169706105009432 M-1.120118009029003 37.104219922610866 C10.692751882788716 24.30638651109488, 20.785000353449618 11.93186222567908, 32.67554486305157 -0.07808294508017255 M-0.5045783993183619 41.616760571110774 C10.52183870472591 28.555444740695833, 22.402628985134456 17.359849880937883, 36.69931324366604 1.3847721350472888 M-0.4987243030547148 42.19984131361895 C13.03478230569966 28.56400879776075, 26.2303798298643 14.344887388079254, 36.325009273180115 -0.642187191070942 M-0.8771385196597166 48.94732986078493 C12.02896312949184 38.16604134385389, 20.79694702174442 25.15998836494974, 43.35301137398534 0.8064772364079005 M0.10585063882164292 48.81699891448848 C16.74405238476562 29.56134964974686, 33.20353654433759 9.695205446034436, 42.437863797504235 -0.2821870829583162 M0.3679921638917776 54.45059588127147 C18.63646198912796 32.220089939575985, 36.46472075122103 10.114052506064603, 46.300319359591484 -1.5503951303485586 M-0.26856711760641616 55.097518681961404 C10.26469094752354 41.913487156890206, 20.411017860886158 30.13602927284635, 47.384729635855436 0.018050406890754545 M-1.1772516722698896 59.16551880864094 C19.316384220176083 36.159285339056524, 39.72745781239464 12.540053446267798, 53.71834549284047 0.7483393899573691 M-0.5326063725074022 60.83878364367078 C18.975898595976734 40.33900553464998, 35.28123261420482 20.812473757762447, 53.96124535402721 -0.23246126478177231 M2.8827972932018042 66.20907341785002 C20.848644080958362 44.51003398579449, 40.97538833782507 21.322698103932034, 58.4333994501263 1.2572659733962261 M0.48418046890270716 66.57634767613578 C19.563563109650786 45.274420092945434, 36.54087040172632 24.969116614466408, 58.26459465185107 0.8808484296571457 M6.873302910643876 68.04508740363264 C24.049349815134732 46.69655764700091, 44.31249719164481 23.901182717621623, 62.919464523804976 -1.1363060248525372 M5.5340812803984285 66.47777382565283 C23.06950055391018 45.42194085935638, 40.628040136298935 27.004462597009677, 63.0669785951205 -0.48456955305054095 M12.23833526947881 66.28133718272761 C29.235623734721322 45.095552416483486, 45.13439666036756 25.998220587273387, 69.7997253902705 0.07533357128162521 M12.515633924839747 65.76473011052326 C29.7665569351808 45.661518386075144, 48.12033377906413 25.10756301164693, 68.69214338366702 -0.015707185271786273 M15.163579046100573 66.86303293120554 C33.27601756764719 48.280297523536696, 45.65026034003694 32.81804677951119, 74.84504034187886 1.232619116978185 M16.47133460205813 65.53147455838015 C31.903968530992525 48.428963786625346, 47.649633822291875 29.892314323951574, 74.3888525832841 0.5933239897353815 M22.98239253286519 67.56810900424583 C40.035987745942634 44.98020014265042, 56.63922574950965 23.79865037284467, 77.47546905502406 -1.20361421169234 M22.3686968778471 65.86514562596543 C43.01383461837712 41.30562617335062, 63.76926433470376 18.33478082947964, 79.20741489380327 -0.4460305003960201 M28.67733540616664 64.29490057791907 C48.5718344286058 39.730778745976664, 69.96824655590841 17.092085552966957, 85.75874482206211 -0.43980705955047483 M27.976779452038137 65.75843884091216 C41.89998632868602 49.524611826356534, 55.496933694873434 34.25823465524828, 85.37315638101802 -1.1794446989240157 M31.87864095836094 65.27446700740467 C50.44605500082281 46.35521642577815, 65.48297663291098 29.835057984323164, 90.911802319387 -1.0619992505256874 M33.23965839042476 64.94693015996228 C44.989812708197235 51.692175622495036, 57.66056231017007 37.28750102209982, 89.16294824475983 0.002964421784426463 M37.365743865842084 65.35826846877322 C49.97555742286166 50.02593926351939, 62.18600957511273 37.23105187281119, 96.29924983935476 -0.8235064294385097 M37.15295489283846 65.82175261074886 C50.54052196039146 51.82140906573862, 63.95237251732431 36.32796177621939, 96.27867905082226 0.2039603184712746 M44.06575242096608 64.23048931720415 C57.17793898564044 52.37977816647572, 69.81206219948585 34.85159823931261, 99.93489705835933 -0.3572434202184027 M43.13730752507274 65.26691965001383 C56.974400023423954 49.7601191817604, 70.87909782115842 35.4290147338045, 100.72378249903673 -0.06813648123043237 M47.55497630012691 64.695714728768 C64.65379419274294 44.46257909131273, 85.22833144919429 23.533832693539473, 107.48022726875675 -0.9634008676859125 M47.9148999869591 66.57200180539024 C61.99221234867675 51.575186826855884, 74.56454935992659 34.22527029971255, 106.17670965519679 -1.0621250205787405 M53.057398795680584 66.89125405864424 C65.83315844757688 51.756371773147706, 77.29981786022805 37.800882118012574, 110.74592514694102 1.6782314042295 M54.88293334429103 65.26945003362006 C66.72404568688113 52.11823788651538, 77.81019626514151 38.05716178089767, 110.86745671913393 0.1287527280593892 M57.9462045840211 66.57481748290341 C73.4911587659175 50.68425850870336, 86.54610986530717 37.83634587268713, 116.03428995627763 0.47529733093008275 M58.990153796900046 65.04727236233633 C76.89507738454935 44.122777621383904, 96.22175748072715 22.15835897063392, 116.29497822765114 0.15884480164870496 M64.74225195750446 65.33683935672497 C75.48721029028151 50.71199612053155, 90.31564733934113 38.957126417632, 121.92105846013209 -0.5629966521819654 M64.11032491057964 65.58635724828099 C83.42804266513355 42.5361516172033, 104.17307738324342 20.135607430267136, 121.38400996755144 -0.43078201284609463 M71.61560059252466 64.88815485617944 C84.06820684931637 52.87132018237875, 96.07870106918023 36.735237393361395, 125.03722783489837 0.18824713096392287 M69.91875538516129 66.47315021908709 C90.29289928092078 41.06237116878491, 112.37095605195589 15.92227161516356, 126.6418918886663 0.9267865622080578 M77.38398378143772 65.2723233364463 C91.4181913478941 49.0169595911603, 102.06907155269573 34.80300409797571, 132.41146887293252 0.9366505355472015 M75.26577128643855 65.03697723149659 C90.0654188983747 47.028680710053635, 106.30061086795318 29.037937489477137, 132.87598130678924 -0.5836547664468839 M80.01433620063762 67.1533049735961 C102.14778508317694 39.231421147743234, 122.48698250887264 17.437101399451997, 135.97165375062852 -1.2397637623616191 M81.05324381424288 66.26272131314253 C96.13362533616527 49.6621457725484, 109.96493187145408 32.28990706551351, 138.07018067175179 0.753245778822091 M85.62126614248035 66.02778412280827 C103.06498194143484 47.3999121921259, 115.15248505978472 30.576623094083928, 141.54332826034235 -0.18024890758302092 M85.60806153436778 64.62814592076688 C99.21069459662336 49.34725120271172, 113.4376362859304 35.24738337714066, 142.7584097993474 -0.9792795952429998 M90.96858328335993 66.51284596015338 C113.59116699278195 41.53115856118085, 133.12750314596718 18.531473020474834, 147.351239578468 1.6463427759534852 M91.55865814664476 66.01657158200268 C106.69193934727375 47.3175212371533, 122.33764301448252 30.489943831792125, 148.90113363940756 0.582558388990833 M96.46777091563236 64.55829984081086 C112.75586765282664 49.84052699053329, 125.68520494218038 33.43226105581018, 153.01780849736156 -0.6461168565726183 M97.20848471686732 65.55419925359186 C114.68536849157184 46.083053486413135, 131.73074091211413 25.987767558598797, 153.25883450772585 -0.07957056173442822 M100.67951371569163 65.73435594085129 C117.3534962340114 48.524259247336204, 131.91905354269028 31.99627031725415, 158.0646571934169 -0.07335512909079966 M101.41253744486696 65.5227869631675 C121.38727119806357 41.67871383743196, 142.20713572529962 19.038630283475236, 158.26853985413368 -0.4534396697857517 M108.65611094690323 68.19865819567684 C123.24492594278821 45.250170112474216, 139.04184474825922 25.900179191420847, 162.9110814589901 0.4316248135784093 M106.29477086744666 65.95168274769429 C126.50210866401835 43.454309938024814, 145.39279071640632 21.757298819917338, 165.4172944944246 -0.15894172842116916 M113.7232993726327 65.21041304068982 C127.96612705406042 48.79084495953651, 138.99415211376 32.3009529340971, 171.37557847047515 -1.6937793524944595 M111.40492077140946 66.75695339413701 C126.25963995485044 51.51878962269406, 138.56681461726797 35.47589125765383, 170.11868837843008 0.9645875399923511 M119.262076169274 67.64451815196071 C137.50313644386014 42.42500052936171, 157.50540596847563 18.802915428126404, 175.67431902022804 1.5705542278700761 M117.87532710658684 65.88051318012867 C131.88148344023585 48.78947682704661, 146.19998595013854 31.755539753981516, 175.08632882194365 0.6956928421967916 M123.05111212918312 66.95859538466897 C145.37397586535505 39.86937907566787, 165.12096959586722 18.670415490546233, 178.92267528464276 -0.8848517692574944 M123.13834718877227 65.88215681241121 C139.5709462929505 48.78124950189108, 153.9484435170959 29.88512636069362, 179.2103682747968 0.34347595582514145 M127.76827942875411 65.48066741488518 C147.75570623350643 46.62480343010115, 162.23721880004211 26.761266386655237, 184.13369305607537 -1.0867504886976462 M127.8028834677973 65.85223606861771 C149.17796041228058 42.68584116087343, 171.86261084883864 17.92153469826397, 184.93097655278305 0.5849190876194257 M133.98912386034294 66.62148109778875 C155.64092612359158 42.53015600449492, 172.99330682128016 18.490423683575372, 188.7196195109198 -1.6914942543799043 M133.0278557594554 65.2489831554901 C148.05963119172108 49.93788026064773, 162.1842415332693 33.04274116052383, 191.11486860573388 -0.6224384847873807 M138.68839260034363 65.16218410945027 C153.8900348994779 49.014696256009785, 166.13499044810104 31.810126922217478, 197.49037544153208 -1.7727112111247436 M139.3987290135781 65.81118735066144 C150.36926925112573 49.71411773576944, 164.41500865452886 36.278527865910405, 196.42877674944276 -0.20317705465325275 M144.23850644111215 65.46664830504915 C159.76208298897922 51.096375677145204, 172.28913069239115 34.232848691445305, 201.15508302430618 1.466371317138325 M144.30098554595887 65.39551836087367 C166.58378480467275 40.90439295055026, 187.12712744833755 15.674052096544393, 202.2159784337412 -0.051319844345201204 M148.9110875590425 67.76914636065598 C159.43533864086228 53.71879643457969, 170.47852803990014 41.294740600864955, 203.3523609646266 1.169378926257096 M148.7966528064292 65.88920296375986 C170.43981337741405 41.195215996202265, 190.97709127795045 16.78783227708678, 205.90159138745122 1.0711190935470682 M155.87543174649073 66.38667513145018 C173.83837973315593 47.74072457601113, 189.40110624726293 24.56383410981747, 205.77608838090634 8.095628452747661 M154.99777561078264 65.04734836606193 C168.62713451783415 51.072005242030734, 180.258917739479 36.23902574713114, 204.4933375024233 8.427973197102148 M159.70003617985077 68.00663229350232 C171.09599798419447 51.43107373880063, 182.54048533080396 37.88883063387115, 204.45417218146343 13.058903430898383 M158.94294390885062 66.40561884541296 C177.03528418670066 46.97399188412151, 194.4699990951415 25.64546035645114, 205.23531021041293 15.372698852170899 M167.35107165147866 65.89913970199183 C174.39266388728106 55.8640565091989, 180.2138505367367 45.560015894142424, 203.65766162966338 18.49809779611148 M165.9707650164267 65.11755910855487 C177.12734914404496 51.125137788439076, 190.89258628206863 36.83921079078814, 203.89208904822317 20.544019095718042 M168.6939103377684 66.20472003298929 C178.30190878739967 59.72655528462705, 184.64892257770057 48.57210208218389, 204.96286640190016 25.217796724457514 M169.59639138334234 65.86727093312075 C179.68191037404284 54.1609371539866, 189.55843706261865 43.358103584273024, 204.18585771568547 26.231504455376637 M177.491598031076 66.14662014167413 C185.42724859514232 56.44444586576863, 193.41158071615425 43.34187327925185, 203.59376979052976 31.35530957111594 M176.8849928253911 64.70673652585253 C182.5235202720766 58.222338443073866, 190.44979985222022 51.36643502858139, 204.51381727859334 32.96760588788864 M181.9063819077954 64.31848770411688 C187.24137377905166 57.99623573194636, 194.30370828304663 52.9580323394961, 202.92355647194623 38.66834651215727 M181.3282842924044 66.96849516438323 C186.80125762109634 60.51434790895234, 192.4439182165584 54.04159289547205, 204.8247139367783 39.44033142088706 M185.4981827602827 66.89669457549704 C190.64394637984387 59.00622938612786, 196.08070566718266 55.481792249728294, 202.81702570951504 43.502051482983774 M186.2179981001758 65.10296655545486 C190.11482519705868 60.85283306114539, 195.7142655097838 54.85692980250852, 205.33625222704333 45.08527909133667 M193.72612276493177 65.92801343188509 C192.48602327339327 63.62610541013809, 196.05099979792456 60.59907610685419, 205.41241426660167 51.30313091899765 M191.52241169853673 66.5911274767004 C195.08245365839448 62.19614500893695, 200.51179729511804 56.96574570327383, 204.69191793619143 50.224765686202176 M198.24588151766005 65.56202283741335 C200.90534306851686 61.81584839882879, 201.98668681937585 60.608314493014895, 204.76929559418883 58.30183316760552 M197.31793372171018 65.69396454093406 C199.25859115061442 62.895985738054684, 201.45509595464134 61.225386027305724, 204.33731552613853 57.79196831037146" style="stroke: rgb(46, 204, 113); stroke-width: 0.5; fill: none;"></path><path d="M1.0749864429802833 -0.6634677362363549 C60.46057541206098 0.4472728864877624, 123.30873892433318 0.3189502315562045, 201.61481858128872 -0.9007018135684127 M-0.623373321970946 0.09584220920869034 C73.3209223090429 0.9686944754020081, 145.8741016234073 0.9666918818566075, 202.70215513816828 -0.6686422929115052 M202.32599630206826 1.6440596356987953 C202.91393798845547 24.74097112305899, 200.70829075830716 47.16842612848559, 202.75910343974832 65.15479633957148 M202.85765324905518 -0.7434523589909077 C202.98418954904238 22.30870855992689, 202.10481826360385 44.05735309090524, 201.11443685367706 65.45402009412646 M200.5898102204211 63.950618070102465 C131.68310313259258 61.852944803422794, 59.03874921055536 61.6674846996087, -1.0401855825570454 63.75208206384742 M201.43608865360352 64.26106941913264 C146.90828234431166 64.61380056542328, 91.94558098403579 65.53300767412104, -0.10873841363765985 65.81898214652026 M-0.8869405761361122 63.48754308372736 C0.6486331347776286 40.97561754555936, -1.4573894615816243 15.833786306707765, 0.360665462911129 1.682560183107853 M0.6522816307842731 65.2826933376491 C0.28404903104485135 50.16973556473822, -0.9982839853507175 32.870204763262876, -0.1826324574649334 0.14864571020007133" style="stroke: transparent; stroke-width: 1; fill: none;"></path></g><g transform="translate(201.751953125 193.32421875) rotate(0 41 12)"><text x="0" y="19" font-family="Cascadia" font-size="20px" fill="#000000" text-anchor="start">Service</text></g><g transform="translate(82.748046875 363.94140625) rotate(0 29.5 12)"><text x="0" y="19" font-family="Cascadia" font-size="20px" fill="#000000" text-anchor="start">Model</text></g><g transform="translate(187.732421875 30.00390625) rotate(0 58.5 12)"><text x="0" y="19" font-family="Cascadia" font-size="20px" fill="#000000" text-anchor="start">Controller</text></g><g><g transform="translate(115.9765625 255.35546875) rotate(0 0.47857494687661983 30.09729491621256)"><path d="M1.146186290681362 0.3584374800324439 C1.1209796771407126 10.419891092677911, 0.920502220094204 50.01214533398549, 0.8285673961043358 59.83615235239267 M0.8499840591475367 0.9805191107466817 C0.568449643664062 10.462645141271254, -0.03538501519709836 49.17941058753679, -0.18903639692813168 58.50345888216049" style="stroke: rgb(0, 0, 0); stroke-width: 1; fill: none;"></path></g><g transform="translate(115.9765625 255.35546875) rotate(0 0.47857494687661983 30.09729491621256)"><path d="M-9.190589746749955 31.631271270422516 C-4.4440200089892485 41.74607513810428, -1.6700300078754857 53.47939645235691, 1.5712944216653704 59.432403209097686 M-9.987380618519145 29.73910009986001 C-5.657947207632043 39.97922415775446, -2.7948238885050607 49.890488012040805, -0.7267864138260485 58.77239320281893" style="stroke: rgb(0, 0, 0); stroke-width: 1; fill: none;"></path></g><g transform="translate(115.9765625 255.35546875) rotate(0 0.47857494687661983 30.09729491621256)"><path d="M10.902040611547074 31.956927107376707 C7.981691408758341 42.13936004498999, 3.0873171834162125 53.748394617004074, 1.5712944216653704 59.432403209097686 M10.105249739777884 30.0647559368142 C7.331183044677228 40.16223644524641, 3.0899485103326336 49.9583548177547, -0.7267864138260485 58.77239320281893" style="stroke: rgb(0, 0, 0); stroke-width: 1; fill: none;"></path></g></g><g><g transform="translate(383.50390625 257.93359375) rotate(0 1.4885661830380172 33.4588286129199)"><path d="M0.7878884688019752 -0.6357224598526955 C0.8592867429057757 10.525679304699102, 1.0087512706716855 55.70914909293254, 1.0036404505372047 66.90006288141012 M0.5140207358077169 1.1549381742998959 C1.2047791719312468 12.510720793219903, 1.9900012425457436 56.256541425598165, 2.463111630268395 67.55337968569249" style="stroke: rgb(0, 0, 0); stroke-width: 1; fill: none;"></path></g><g transform="translate(383.50390625 257.93359375) rotate(0 1.4885661830380172 33.4588286129199)"><path d="M-9.671428307575392 38.74105186081923 C-5.956548271249144 47.95845232775303, -2.753643194120847 57.163752372061666, 1.8277935670688747 68.11515098165721 M-7.633648764026569 40.397398506025446 C-4.12649525329845 49.08838621009282, -0.35743375338618755 59.71347368183774, 2.7951219702139496 68.02449919756502" style="stroke: rgb(0, 0, 0); stroke-width: 1; fill: none;"></path></g><g transform="translate(383.50390625 257.93359375) rotate(0 1.4885661830380172 33.4588286129199)"><path d="M10.841124079689271 38.145067846300094 C7.418577090990288 47.70451357040851, 3.4843945942612384 57.117178842794914, 1.8277935670688747 68.11515098165721 M12.878903623238093 39.80141449150631 C8.940649079487063 48.70253423095801, 5.2613694640735655 59.54403027807729, 2.7951219702139496 68.02449919756502" style="stroke: rgb(0, 0, 0); stroke-width: 1; fill: none;"></path></g></g><g><g transform="translate(232.8046875 98.765625) rotate(0 0.046675187350388114 27.492546619474894)"><path d="M-1.103290571272373 -0.9391658887267113 C-1.4980665817856789 8.428681665162244, -1.334299959242344 46.40992262115081, -1.4039584770798683 55.924259127676486 M1.3951521144434809 1.3877163012698293 C1.7396386263892054 10.336785475003223, 1.1470818529650573 45.901379684594765, 0.606234845928848 54.90615408141166" style="stroke: rgb(0, 0, 0); stroke-width: 1; fill: none;"></path></g><g transform="translate(232.8046875 98.765625) rotate(0 0.046675187350388114 27.492546619474894)"><path d="M-9.721631652244401 26.537887503362427 C-6.002376107609549 36.65826475534409, -2.298171611563614 46.95367032897016, 1.930539806596935 56.430910490639505 M-8.879079858341289 27.355531000501642 C-5.342990886393011 37.722211253671276, -1.4494181560276003 47.66196541509093, -0.3464272755756972 54.95288693550974" style="stroke: rgb(0, 0, 0); stroke-width: 1; fill: none;"></path></g><g transform="translate(232.8046875 98.765625) rotate(0 0.046675187350388114 27.492546619474894)"><path d="M9.62406676448937 27.200502005639578 C5.9859454434191095 36.89096030055631, 2.3312113676027106 46.93431297259962, 1.930539806596935 56.430910490639505 M10.466618558392483 28.018145502778793 C6.727880321491956 37.95739150825436, 3.350730354577597 47.64811427274673, -0.3464272755756972 54.95288693550974" style="stroke: rgb(0, 0, 0); stroke-width: 1; fill: none;"></path></g></g><g transform="translate(250.1796875 121.34765625) rotate(0 17.5 12)"><text x="0" y="19" font-family="Cascadia" font-size="20px" fill="#000000" text-anchor="start">use</text></g><g transform="translate(140.98828125 274.8359375) rotate(0 17.5 12)"><text x="0" y="19" font-family="Cascadia" font-size="20px" fill="#000000" text-anchor="start">use</text></g><g transform="translate(408.15625 272.96484375) rotate(0 17.5 12)"><text x="0" y="19" font-family="Cascadia" font-size="20px" fill="#000000" text-anchor="start">use</text></g><g transform="translate(368.443359375 365.4140625) rotate(0 35 12)"><text x="0" y="19" font-family="Cascadia" font-size="20px" fill="#000000" text-anchor="start">WX-Api</text></g></svg>